# This file uses centimeters as units for non-parametric coordinates.

mtllib BedMesh.mtl
v -2.501890 0.846558 -1.353805
v 2.487556 0.846558 -1.353805
v -2.501890 0.539043 -1.353805
v 2.487556 0.539043 -1.353805
v -2.501890 0.539043 1.506776
v 2.487556 0.539043 1.506776
v -2.501890 0.846558 1.506776
v 2.487556 0.846558 1.506776
v 2.194311 0.539043 1.506776
v 2.205961 0.539043 -1.353805
v 1.761982 0.846558 -1.353805
v -2.179870 0.539043 1.506776
v -2.179573 0.539043 -1.353805
v -1.764358 0.846558 -1.353805
v 2.487556 0.846558 0.987472
v -2.501890 0.846558 0.982328
v -2.501890 0.539043 1.087863
v -2.179827 0.539043 1.087838
v 2.196026 0.539043 1.087715
v 2.487556 0.539043 1.087689
v 2.487556 0.846558 1.087863
v -2.501890 0.539043 -0.961278
v -2.179612 0.539043 -0.961278
v 2.204365 0.539043 -0.961278
v 2.487556 0.539043 -0.961277
v 2.194311 -0.012467 1.506776
v 2.196026 -0.012467 1.087715
v 2.487556 -0.012467 1.087689
v 2.487556 -0.012467 1.506776
v -2.501890 -0.012467 1.087863
v -2.179827 -0.012467 1.087838
v -2.179870 -0.012467 1.506776
v -2.501890 -0.012467 1.506776
v -2.501890 -0.012467 -1.353805
v -2.179573 -0.012467 -1.353805
v -2.179612 -0.012467 -0.961278
v -2.501890 -0.012467 -0.961278
v 2.204365 -0.012467 -0.961278
v 2.487556 -0.012467 -0.961277
v 2.205961 -0.012467 -1.353805
v 2.487556 -0.012467 -1.353805
v -2.377430 0.846558 1.435420
v -2.377430 0.846558 0.937136
v 2.363102 0.846558 1.435420
v 2.363102 0.846558 1.037406
v 2.363102 0.846558 0.942023
v 2.363102 0.846558 -1.282450
v 1.673723 0.846558 -1.282450
v -1.676696 0.846558 -1.282450
v -2.377430 0.846558 -1.282450
v -2.178443 1.313849 1.236433
v -2.377430 1.114862 1.435420
v -2.377430 1.114862 0.937136
v -2.178443 1.313849 0.937136
v 2.164112 1.313849 1.236433
v 2.363102 1.114862 1.435420
v 2.164112 1.313849 1.037406
v 2.363102 1.114862 1.037406
v 2.164112 1.313849 0.942023
v 2.363102 1.114862 0.942023
v 2.164112 1.313849 -1.083464
v 2.363102 1.114862 -1.282450
v 1.673723 1.313849 -1.083464
v 1.673723 1.114862 -1.282450
v -1.676696 1.313849 -1.083464
v -1.676696 1.114862 -1.282450
v -2.178443 1.313849 -1.083464
v -2.377430 1.114862 -1.282450
v 0.861345 1.313849 1.236433
v 0.850045 1.313849 -1.083464
v 0.959009 1.313849 1.060993
v 0.949419 1.313849 -0.908024
v 2.064734 1.313849 1.060993
v 2.064734 1.313849 0.892069
v 2.064734 1.313849 0.811112
v 2.064734 1.313849 -0.908024
v 1.648518 1.313849 -0.908024
v 1.035291 1.467175 0.984338
v 0.959009 1.390520 1.060993
v 0.949419 1.390520 -0.908024
v 1.026449 1.467175 -0.831368
v 1.988079 1.467175 0.984338
v 2.064734 1.390520 1.060993
v 1.988079 1.467175 0.892069
v 2.064734 1.390520 0.892069
v 1.988079 1.467175 0.811112
v 2.064734 1.390520 0.811112
v 1.988079 1.467175 -0.831368
v 2.064734 1.390520 -0.908024
v 1.648518 1.467175 -0.831368
v 1.648518 1.390520 -0.908024
vt 0.544590 0.188051
vt 0.544601 0.001992
vt 0.571848 0.001992
vt 0.571848 0.188051
vt 0.385790 0.001992
vt 0.538072 0.001992
vt 0.411321 0.188051
vt 0.385790 0.188051
vt 0.571848 0.521735
vt 0.544590 0.521735
vt 0.411321 0.521735
vt 0.385790 0.521735
vt 0.577660 0.001992
vt 0.611771 0.001992
vt 0.763718 0.001992
vt 0.763718 0.188051
vt 0.738187 0.188051
vt 0.604907 0.188051
vt 0.577660 0.188051
vt 0.763718 0.521735
vt 0.738187 0.521735
vt 0.604907 0.521735
vt 0.577660 0.521735
vt 0.769529 0.001992
vt 0.796786 0.001992
vt 0.796786 0.335677
vt 0.769529 0.335677
vt 0.840795 0.001992
vt 0.868044 0.001992
vt 0.868044 0.335677
vt 0.840795 0.335677
vt 0.875515 0.001992
vt 0.901045 0.001992
vt 0.901045 0.335677
vt 0.875515 0.335677
vt 0.893885 0.339419
vt 0.919416 0.339419
vt 0.919416 0.673104
vt 0.893885 0.673104
vt 0.528828 0.645872
vt 0.541770 0.525478
vt 0.561237 0.525478
vt 0.561237 0.645872
vt 0.692662 0.525478
vt 0.705604 0.645872
vt 0.561237 0.808207
vt 0.528828 0.808207
vt 0.705604 0.808207
vt 0.510133 0.525478
vt 0.523075 0.645872
vt 0.497188 0.645872
vt 0.497188 0.525478
vt 0.523075 0.808207
vt 0.497188 0.808207
vt 0.490984 0.645872
vt 0.490984 0.525478
vt 0.490984 0.808207
vt 0.346299 0.645872
vt 0.359242 0.525478
vt 0.346299 0.808207
vt 0.589320 0.940019
vt 0.542940 0.935033
vt 0.542940 0.816935
vt 0.589320 0.811949
vt 0.635709 0.811949
vt 0.635709 0.940019
vt 0.641616 0.816935
vt 0.687996 0.811949
vt 0.687996 0.822937
vt 0.641616 0.822937
vt 0.734384 0.811949
vt 0.734384 0.822937
vt 0.687996 0.828202
vt 0.641616 0.828202
vt 0.734384 0.828202
vt 0.687996 0.940018
vt 0.641616 0.935033
vt 0.734384 0.940018
vt 0.877342 0.839208
vt 0.877406 0.811951
vt 0.888277 0.811950
vt 0.888277 0.839208
vt 0.013876 0.998008
vt 0.013878 0.970759
vt 0.177055 0.970751
vt 0.176991 0.998008
vt 0.013886 0.837480
vt 0.177366 0.837480
vt 0.001868 0.837480
vt 0.001868 0.970761
vt 0.013887 0.811950
vt 0.177425 0.811950
vt 0.187926 0.970750
vt 0.187926 0.837480
vt 0.895615 0.676848
vt 0.907625 0.676846
vt 0.907623 0.704095
vt 0.895615 0.704095
vt 0.913888 0.676846
vt 0.925908 0.676846
vt 0.925906 0.702377
vt 0.913888 0.702377
vt 0.935729 0.731651
vt 0.925168 0.731651
vt 0.925228 0.706120
vt 0.935729 0.706120
vt 0.193920 0.846061
vt 0.193920 0.811950
vt 0.198561 0.816591
vt 0.198561 0.849000
vt 0.379978 0.811950
vt 0.375337 0.816591
vt 0.193920 0.998008
vt 0.198561 0.993367
vt 0.379978 0.839197
vt 0.375337 0.842478
vt 0.221423 0.998008
vt 0.224692 0.993367
vt 0.379978 0.845726
vt 0.375337 0.848682
vt 0.352921 0.998008
vt 0.349630 0.993367
vt 0.379978 0.998008
vt 0.375337 0.993367
vt 0.405257 0.973885
vt 0.385790 0.973885
vt 0.385790 0.860530
vt 0.536681 0.860951
vt 0.536681 0.955175
vt 0.536681 0.973885
vt 0.397201 0.856888
vt 0.525270 0.857246
vt 0.385790 0.811949
vt 0.397201 0.815655
vt 0.536681 0.830236
vt 0.525270 0.831176
vt 0.398735 0.811949
vt 0.408188 0.815655
vt 0.536681 0.811949
vt 0.525270 0.815655
vt 0.404939 0.811949
vt 0.413454 0.815655
vt 0.740292 0.930047
vt 0.740622 0.811950
vt 0.776151 0.811950
vt 0.776151 0.817951
vt 0.776151 0.823217
vt 0.776151 0.930047
vt 0.763489 0.930047
vt 0.177425 0.188051
vt 0.160869 0.001992
vt 0.187926 0.001992
vt 0.187926 0.188051
vt 0.013887 0.188051
vt 0.029371 0.001992
vt 0.187926 0.521735
vt 0.177425 0.521735
vt 0.001868 0.001992
vt 0.001868 0.188051
vt 0.013887 0.521735
vt 0.001868 0.521735
vt 0.193920 0.335677
vt 0.205928 0.335677
vt 0.369043 0.335677
vt 0.379978 0.335677
vt 0.379978 0.521735
vt 0.193920 0.521735
vt 0.193920 0.001992
vt 0.205928 0.001992
vt 0.369043 0.001992
vt 0.379978 0.001992
vt 0.804249 0.001992
vt 0.815120 0.001992
vt 0.815120 0.335677
vt 0.804249 0.335677
vt 0.822522 0.001992
vt 0.834532 0.001992
vt 0.834532 0.335677
vt 0.822522 0.335677
vt 0.920424 0.335677
vt 0.908406 0.335677
vt 0.908406 0.001992
vt 0.920424 0.001992
vt 0.935729 0.335677
vt 0.925168 0.335677
vt 0.925168 0.001992
vt 0.935729 0.001992
vt 0.718777 0.808207
vt 0.711357 0.687813
vt 0.888133 0.687813
vt 0.880712 0.808207
vt 0.832132 0.808207
vt 0.711357 0.525478
vt 0.888133 0.525478
vt 0.333127 0.525478
vt 0.340547 0.645872
vt 0.314840 0.645872
vt 0.314840 0.525478
vt 0.340547 0.808207
vt 0.314840 0.808207
vt 0.189901 0.645872
vt 0.189901 0.525478
vt 0.284125 0.525478
vt 0.189901 0.808207
vt 0.163771 0.645872
vt 0.171191 0.525478
vt 0.163771 0.808207
vt 0.785165 0.904718
vt 0.782321 0.858338
vt 0.823553 0.858338
vt 0.820695 0.904718
vt 0.782321 0.811949
vt 0.823553 0.811949
vt 0.829831 0.858329
vt 0.832704 0.811949
vt 0.855901 0.811949
vt 0.855901 0.858329
vt 0.868563 0.811949
vt 0.871422 0.858329
vt 0.855901 0.904718
vt 0.829831 0.904718
vt 0.871422 0.904718
vn 0.000000 -0.000000 -1.000000
vn 0.000000 -0.000000 -1.000000
vn 0.000000 -0.000000 -1.000000
vn 0.000000 -0.000000 -1.000000
vn 0.000000 -1.000000 0.000000
vn 0.000000 -1.000000 0.000000
vn 0.000000 -1.000000 0.000000
vn 0.000000 -1.000000 0.000000
vn 0.000000 0.000000 1.000000
vn 0.000000 0.000000 1.000000
vn 0.000000 0.000000 1.000000
vn 0.000000 0.000000 1.000000
vn 0.000000 0.000000 1.000000
vn 0.000000 0.000000 1.000000
vn 1.000000 0.000000 -0.000000
vn 1.000000 0.000000 -0.000000
vn 1.000000 0.000000 0.000000
vn 1.000000 0.000000 0.000000
vn -1.000000 -0.000000 0.000000
vn -1.000000 -0.000000 0.000000
vn -1.000000 -0.000000 0.000000
vn -1.000000 -0.000000 0.000000
vn -1.000000 -0.000000 0.000000
vn -1.000000 -0.000000 0.000000
vn -1.000000 -0.000000 0.000000
vn 0.000000 -1.000000 0.000000
vn 0.000000 -1.000000 -0.000000
vn 0.000000 -1.000000 -0.000000
vn 0.000000 -1.000000 0.000000
vn 0.000000 -0.000000 -1.000000
vn 0.000000 -0.000000 -1.000000
vn 0.000000 -1.000000 0.000000
vn 0.000000 -1.000000 0.000000
vn 0.000000 -1.000000 0.000000
vn 0.000000 -1.000000 0.000000
vn 0.000000 -0.000000 -1.000000
vn 0.000000 -0.000000 -1.000000
vn 0.000000 -1.000000 0.000000
vn 0.000000 -1.000000 0.000000
vn 0.000000 -1.000000 0.000000
vn 0.000000 -1.000000 0.000000
vn 0.000000 -1.000000 0.000000
vn 0.000000 -1.000000 0.000000
vn 1.000000 0.000000 -0.000000
vn 1.000000 0.000000 -0.000000
vn 1.000000 0.000000 -0.000000
vn 1.000000 0.000000 -0.000000
vn 0.000000 -1.000000 0.000000
vn 0.000000 -1.000000 0.000000
vn 0.000000 -1.000000 0.000000
vn 0.000000 -1.000000 0.000000
vn 0.000000 -1.000000 0.000000
vn 0.000000 -1.000000 0.000000
vn 0.000000 -1.000000 0.000000
vn 0.000000 -1.000000 0.000000
vn 0.000000 -1.000000 0.000000
vn 0.000000 -1.000000 0.000000
vn -0.999992 -0.000000 -0.004093
vn -0.999992 -0.000000 -0.004093
vn -0.999992 -0.000000 -0.004093
vn -0.999992 -0.000000 -0.004093
vn -0.000089 -0.000000 -1.000000
vn -0.000089 -0.000000 -1.000000
vn -0.000089 -0.000000 -1.000000
vn -0.000089 -0.000000 -1.000000
vn 1.000000 0.000000 0.000000
vn 1.000000 0.000000 0.000000
vn 1.000000 0.000000 0.000000
vn 1.000000 0.000000 0.000000
vn 0.000000 0.000000 1.000000
vn 0.000000 0.000000 1.000000
vn 0.000000 0.000000 1.000000
vn 0.000000 0.000000 1.000000
vn -0.000078 -0.000000 -1.000000
vn -0.000078 -0.000000 -1.000000
vn -0.000078 -0.000000 -1.000000
vn -0.000078 -0.000000 -1.000000
vn 1.000000 0.000000 0.000105
vn 1.000000 0.000000 0.000105
vn 1.000000 0.000000 0.000105
vn 1.000000 0.000000 0.000105
vn 0.000000 0.000000 1.000000
vn 0.000000 0.000000 1.000000
vn 0.000000 0.000000 1.000000
vn 0.000000 0.000000 1.000000
vn -1.000000 -0.000000 0.000000
vn -1.000000 -0.000000 0.000000
vn -1.000000 -0.000000 0.000000
vn -1.000000 -0.000000 0.000000
vn 0.000000 -0.000000 -1.000000
vn 0.000000 -0.000000 -1.000000
vn 0.000000 -0.000000 -1.000000
vn 0.000000 -0.000000 -1.000000
vn 1.000000 0.000000 0.000100
vn 1.000000 0.000000 0.000100
vn 1.000000 0.000000 0.000100
vn 1.000000 0.000000 0.000100
vn -0.000001 0.000000 1.000000
vn -0.000001 0.000000 1.000000
vn -0.000001 0.000000 1.000000
vn -0.000001 0.000000 1.000000
vn -1.000000 -0.000000 0.000000
vn -1.000000 -0.000000 0.000000
vn -1.000000 -0.000000 0.000000
vn -1.000000 -0.000000 0.000000
vn -0.000004 0.000000 1.000000
vn -0.000004 0.000000 1.000000
vn -0.000004 0.000000 1.000000
vn -0.000004 0.000000 1.000000
vn -0.999992 -0.000000 -0.004064
vn -0.999992 -0.000000 -0.004064
vn -0.999992 -0.000000 -0.004064
vn -0.999992 -0.000000 -0.004064
vn 0.000000 -0.000000 -1.000000
vn 0.000000 -0.000000 -1.000000
vn 0.000000 -0.000000 -1.000000
vn 0.000000 -0.000000 -1.000000
vn 1.000000 0.000000 0.000000
vn 1.000000 0.000000 0.000000
vn 1.000000 0.000000 0.000000
vn 1.000000 0.000000 0.000000
vn 0.000000 1.000000 -0.000000
vn 0.000000 1.000000 -0.000000
vn 0.000000 1.000000 -0.000000
vn 0.000000 1.000000 -0.000000
vn 0.000000 1.000000 -0.000000
vn 0.000000 1.000000 -0.000000
vn 0.000000 1.000000 -0.000000
vn 0.000000 1.000000 -0.000000
vn 0.000000 1.000000 -0.000000
vn 0.000000 1.000000 -0.000000
vn 0.000000 1.000000 -0.000000
vn 0.000000 1.000000 -0.000000
vn 0.000000 1.000000 -0.000000
vn 0.000000 1.000000 -0.000000
vn 0.000000 1.000000 -0.000000
vn 0.000000 1.000000 -0.000000
vn 0.000000 1.000000 -0.000000
vn 0.000000 1.000000 -0.000000
vn 0.000000 1.000000 -0.000000
vn 0.000000 1.000000 -0.000000
vn 0.000000 1.000000 -0.000000
vn 0.000000 1.000000 -0.000000
vn 0.000000 1.000000 -0.000000
vn 0.000000 1.000000 -0.000000
vn 0.000000 1.000000 -0.000000
vn 0.000000 1.000000 -0.000000
vn 0.000000 1.000000 -0.000000
vn 0.000000 1.000000 -0.000000
vn 0.000000 1.000000 -0.000000
vn 0.000000 1.000000 -0.000000
vn 0.000000 1.000000 -0.000000
vn 0.000000 1.000000 -0.000000
vn 0.000000 1.000000 -0.000000
vn 0.000000 1.000000 -0.000000
vn 0.000000 1.000000 -0.000000
vn 0.000000 1.000000 -0.000000
vn 0.000000 0.707107 0.707107
vn 0.000000 0.707107 0.707107
vn 0.000000 0.707107 0.707107
vn 0.000000 0.707107 0.707107
vn 0.000000 0.707107 0.707107
vn -0.707106 0.707107 -0.000000
vn -0.707106 0.707107 -0.000000
vn -0.707107 0.707107 -0.000000
vn -0.707107 0.707107 -0.000000
vn -0.707107 0.707107 -0.000000
vn -0.707107 0.707107 -0.000000
vn 0.707102 0.707111 -0.000000
vn 0.707102 0.707111 -0.000000
vn 0.707102 0.707111 -0.000000
vn 0.707102 0.707111 -0.000000
vn 0.707102 0.707111 -0.000000
vn 0.707102 0.707111 -0.000000
vn 0.707102 0.707111 -0.000000
vn 0.707102 0.707111 -0.000000
vn 0.000000 0.707105 -0.707108
vn 0.000000 0.707105 -0.707108
vn 0.000000 0.707105 -0.707108
vn 0.000000 0.707105 -0.707108
vn 0.000000 0.707105 -0.707108
vn 0.000000 0.707105 -0.707108
vn 0.000000 0.707105 -0.707108
vn 0.000000 0.707105 -0.707108
vn 0.000000 0.707106 -0.707108
vn 0.000000 1.000000 0.000000
vn 0.000000 1.000000 0.000000
vn 0.000000 1.000000 0.000000
vn 0.000000 1.000000 0.000000
vn 0.000000 1.000000 0.000000
vn 0.000000 1.000000 0.000000
vn -1.000000 -0.000000 0.000000
vn -1.000000 -0.000000 0.000000
vn -1.000000 -0.000000 0.000000
vn -1.000000 -0.000000 0.000000
vn 0.000000 0.000000 1.000000
vn 0.000000 0.000000 1.000000
vn 0.000000 0.000000 1.000000
vn 0.000000 0.000000 1.000000
vn 1.000000 0.000000 0.000000
vn 1.000000 0.000000 0.000000
vn 1.000000 0.000000 0.000000
vn 1.000000 0.000000 0.000000
vn 1.000000 0.000000 0.000000
vn 1.000000 0.000000 0.000000
vn 1.000000 0.000000 0.000000
vn 1.000000 0.000000 0.000000
vn 0.000000 -0.000000 -1.000000
vn 0.000000 -0.000000 -1.000000
vn 0.000000 -0.000000 -1.000000
vn 0.000000 -0.000000 -1.000000
vn 0.000000 -0.000000 -1.000000
vn 0.000000 -0.000000 -1.000000
vn 0.000000 -0.000000 -1.000000
vn 0.000000 -0.000000 -1.000000
vn -1.000000 -0.000000 0.000000
vn -1.000000 -0.000000 0.000000
vn 0.000000 1.000000 -0.000000
vn 0.000000 1.000000 -0.000000
vn 0.000000 1.000000 -0.000000
vn 0.000000 1.000000 -0.000000
vn 0.000000 1.000000 0.000000
vn 0.000000 1.000000 0.000000
vn 0.000000 1.000000 0.000000
vn 0.000000 1.000000 0.000000
vn 0.000000 1.000000 -0.000000
vn 0.000000 1.000000 -0.000000
vn 0.000000 1.000000 -0.000000
vn 0.000000 1.000000 -0.000000
vn 0.000000 1.000000 -0.000000
vn 0.000000 1.000000 -0.000000
vn 0.000000 1.000000 -0.000000
vn 0.000000 1.000000 -0.000000
vn 0.000000 1.000000 -0.000000
vn 0.000000 1.000000 -0.000000
vn 0.000000 1.000000 -0.000000
vn 0.000000 1.000000 -0.000000
vn 0.000000 1.000000 -0.000000
vn 0.000000 1.000000 -0.000000
vn 0.000000 1.000000 -0.000000
vn 0.000000 1.000000 -0.000000
vn 0.000000 1.000000 0.000000
vn 0.000000 1.000000 0.000000
vn 0.000000 1.000000 0.000000
vn 0.000000 1.000000 0.000000
vn 0.000000 0.707106 0.707108
vn 0.000000 0.707106 0.707108
vn 0.000000 0.707106 0.707108
vn 0.000000 0.707106 0.707108
vn -0.707100 0.707105 0.003444
vn -0.707100 0.707105 0.003444
vn -0.707100 0.707105 0.003444
vn -0.707100 0.707105 0.003444
vn 0.000000 0.707106 -0.707108
vn 0.000000 0.707106 -0.707108
vn 0.000000 0.707106 -0.707108
vn 0.000000 0.707106 -0.707108
vn 0.707108 0.707106 -0.000000
vn 0.707108 0.707106 -0.000000
vn 0.707108 0.707106 -0.000000
vn 0.707108 0.707106 -0.000000
vn 0.707107 0.707106 -0.000000
vn 0.707107 0.707106 -0.000000
vn 0.707107 0.707106 -0.000000
vn 0.707107 0.707106 -0.000000
vn 0.000000 0.707106 -0.707108
vn 0.000000 0.707106 -0.707108
vn 0.000000 1.000000 -0.000000
vn 0.000000 1.000000 -0.000000
vn 0.000000 1.000000 -0.000000
vn 0.000000 1.000000 -0.000000
vn 0.000000 1.000000 -0.000000
vn 0.000000 1.000000 -0.000000
vn 0.000000 1.000000 -0.000000
vn -0.999988 0.000000 0.004871
vn -0.999988 0.000000 0.004871
vn -0.999988 0.000000 0.004871
vn -0.999988 0.000000 0.004871
vn 0.000000 0.000000 1.000000
vn 0.000000 0.000000 1.000000
vn 0.000000 0.000000 1.000000
vn 0.000000 0.000000 1.000000
vn 1.000000 0.000000 0.000000
vn 1.000000 0.000000 0.000000
vn 1.000000 0.000000 0.000000
vn 1.000000 0.000000 0.000000
vn 1.000000 0.000000 0.000000
vn 1.000000 0.000000 0.000000
vn 1.000000 0.000000 0.000000
vn 1.000000 0.000000 0.000000
vn 0.000000 -0.000000 -1.000000
vn 0.000000 -0.000000 -1.000000
vn 0.000000 -0.000000 -1.000000
vn 0.000000 -0.000000 -1.000000
vn 0.000000 -0.000000 -1.000000
vn 0.000000 -0.000000 -1.000000
s 1
usemtl initialShadingGroup
f 10/150/1 11/151/2 2/152/3 4/153/4
s off
f 26/79/5 27/80/6 28/81/7 29/82/8
f 5/162/9 12/163/10 9/164/11 6/165/12 8/166/13 7/167/14
s 2
f 20/1/15 21/2/16 8/3/17 6/4/18
s off
f 7/13/19 16/14/20 1/15/21 3/16/22 22/17/23 17/18/24 5/19/25
s 3
f 12/83/26 18/84/27 19/85/28 9/86/29
s 1
f 13/154/30 14/155/31 11/151/2 10/150/1
s off
f 30/95/32 31/96/33 32/97/34 33/98/35
s 1
f 1/158/36 14/155/31 13/154/30 3/159/37
s 3
f 22/89/38 23/87/39 18/84/27 17/90/40
f 19/85/28 18/84/27 23/87/39 24/88/41
f 20/93/42 19/85/28 24/88/41 25/94/43
s 2
f 2/5/44 15/6/45 21/2/16 20/1/15 25/7/46 4/8/47
s off
f 34/99/48 35/100/49 36/101/50 37/102/51
s 3
f 24/88/41 23/87/39 13/91/52 10/92/53
s off
f 39/103/54 38/104/55 40/105/56 41/106/57
f 9/24/58 19/25/59 27/26/60 26/27/61
f 19/172/62 20/173/63 28/174/64 27/175/65
f 20/1/66 6/4/67 29/9/68 28/10/69
f 6/165/70 9/164/71 26/170/72 29/171/73
f 17/176/74 18/177/75 31/178/76 30/179/77
f 18/28/78 12/29/79 32/30/80 31/31/81
f 12/163/82 5/162/83 33/168/84 32/169/85
f 5/19/86 17/18/87 30/22/88 33/23/89
f 3/159/90 13/154/91 35/160/92 34/161/93
f 13/32/94 23/33/95 36/34/96 35/35/97
f 23/180/98 22/181/99 37/182/100 36/183/101
f 22/17/102 3/16/103 34/20/104 37/21/105
f 25/184/106 24/185/107 38/186/108 39/187/109
f 24/36/110 10/37/111 40/38/112 38/39/113
f 10/150/114 4/153/115 41/156/116 40/157/117
f 4/8/118 25/7/119 39/11/120 41/12/121
f 16/107/122 7/108/123 42/109/124 43/110/125
f 7/108/126 8/111/127 44/112/128 42/109/129
f 8/111/130 21/115/131 45/116/132 44/112/133
f 21/115/134 15/119/135 46/120/136 45/116/137
f 15/119/138 2/123/139 47/124/140 46/120/141
f 2/123/142 11/121/143 48/122/144 47/124/145
f 11/121/146 14/117/147 49/118/148 48/122/149
f 14/117/150 1/113/151 50/114/152 49/118/153
f 1/113/154 16/107/155 43/110/156 50/114/157
f 51/188/158 52/189/159 56/190/160 55/191/161 69/192/162
s 4
f 52/40/163 51/41/164 54/42/165 53/43/166
f 53/43/166 54/42/165 67/44/167 68/45/168
s 5
f 55/49/169 56/50/170 58/51/171 57/52/172
f 57/52/172 58/51/171 60/55/173 59/56/174
f 59/56/174 60/55/173 62/58/175 61/59/176
s 6
f 61/195/177 62/196/178 64/197/179 63/198/180
f 63/198/180 64/197/179 66/201/181 65/202/182 70/203/183
f 65/202/182 66/201/181 68/205/184 67/206/185
s off
f 54/125/186 51/126/187 69/127/188 70/128/189 65/129/190 67/130/191
s 7
f 43/46/192 42/47/193 52/40/194 53/43/195
s off
f 42/193/196 44/194/197 56/190/198 52/189/199
s 8
f 44/53/200 45/54/201 58/51/202 56/50/203
f 45/54/201 46/57/204 60/55/205 58/51/202
f 46/57/204 47/60/206 62/58/207 60/55/205
s 9
f 47/199/208 48/200/209 64/197/210 62/196/211
f 48/200/209 49/204/212 66/201/213 64/197/210
f 49/204/212 50/207/214 68/205/215 66/201/213
s 7
f 50/48/216 43/46/192 53/43/195 68/45/217
s off
f 70/128/218 69/127/219 71/131/220 72/132/221
f 69/127/222 55/133/223 73/134/224 71/131/225
f 55/133/226 57/137/227 74/138/228 73/134/229
f 57/137/230 59/141/231 75/142/232 74/138/233
f 59/141/234 61/139/235 76/140/236 75/142/237
f 61/139/238 63/135/239 77/136/240 76/140/241
f 63/135/242 70/128/243 72/132/244 77/136/245
f 78/208/246 79/209/247 83/210/248 82/211/249
f 79/61/250 78/62/251 81/63/252 80/64/253
s 10
f 80/214/254 81/215/255 90/216/256 91/217/257
s 11
f 82/67/258 83/68/259 85/69/260 84/70/261
f 84/70/261 85/69/260 87/73/262 86/74/263
f 86/74/263 87/73/262 89/76/264 88/77/265
s 10
f 88/218/266 89/219/267 91/217/257 90/216/256
s off
f 81/143/268 78/144/269 82/145/270 84/146/271 86/147/272 88/148/273 90/149/274
f 72/65/275 71/66/276 79/61/277 80/64/278
f 71/212/279 73/213/280 83/210/281 79/209/282
s 12
f 73/71/283 74/72/284 85/69/285 83/68/286
f 74/72/284 75/75/287 87/73/288 85/69/285
f 75/75/287 76/78/289 89/76/290 87/73/288
s 13
f 76/222/291 77/220/292 91/217/293 89/219/294
f 77/220/292 72/221/295 80/214/296 91/217/293
