# This file uses centimeters as units for non-parametric coordinates.

mtllib BushMesh.mtl
v 0.049638 -0.053891 -0.475663
v -0.388735 -0.053891 -0.728758
v -0.887235 -0.053891 -0.640859
v -1.212607 -0.053891 -0.253095
v -1.212607 -0.053891 0.253095
v -0.887235 -0.053891 0.640859
v -0.388735 -0.053891 0.728758
v 0.049638 -0.053891 0.475663
v 0.222765 -0.053891 0.000000
v -0.026309 0.316109 -0.411936
v -0.405951 0.316109 -0.631123
v -0.837664 0.316109 -0.555000
v -1.119445 0.316109 -0.219187
v -1.119445 0.316109 0.219187
v -0.837664 0.316109 0.555000
v -0.405951 0.316109 0.631123
v -0.026309 0.316109 0.411936
v 0.123624 0.316109 0.000000
v -0.233798 0.586968 -0.237831
v -0.452985 0.586968 -0.364379
v -0.702235 0.586968 -0.320429
v -0.864921 0.586968 -0.126547
v -0.864921 0.586968 0.126547
v -0.702235 0.586968 0.320429
v -0.452985 0.586968 0.364379
v -0.233799 0.586968 0.237831
v -0.147235 0.586968 0.000000
v -0.517235 0.647107 0.000000
v 1.542034 -0.043645 -0.658138
v 0.935490 -0.043645 -1.008327
v 0.245754 -0.043645 -0.886708
v -0.204439 -0.043645 -0.350188
v -0.204439 -0.043645 0.350188
v 0.245754 -0.043645 0.886707
v 0.935490 -0.043645 1.008327
v 1.542034 -0.043645 0.658138
v 1.781577 -0.043645 0.000000
v 1.663372 0.547493 -0.759953
v 0.962995 0.547493 -1.164315
v 0.166557 0.547493 -1.023882
v -0.353282 0.547493 -0.404363
v -0.353282 0.547493 0.404362
v 0.166557 0.547493 1.023882
v 0.962995 0.547493 1.164315
v 1.663371 0.547493 0.759953
v 1.939972 0.547493 0.000000
v 1.542034 1.138631 -0.658138
v 0.935490 1.138631 -1.008327
v 0.245754 1.138631 -0.886708
v -0.204439 1.138631 -0.350188
v -0.204439 1.138631 0.350188
v 0.245754 1.138631 0.886707
v 0.935490 1.138631 1.008327
v 1.542034 1.138631 0.658138
v 1.781577 1.138631 0.000000
v 1.210533 1.571374 -0.379976
v 0.860345 1.571374 -0.582158
v 0.462126 1.571374 -0.511941
v 0.202207 1.571374 -0.202181
v 0.202207 1.571374 0.202181
v 0.462126 1.571374 0.511941
v 0.860345 1.571374 0.582158
v 1.210533 1.571374 0.379976
v 1.348833 1.571374 0.000000
v 0.757695 1.667458 0.000000
vt 0.282836 0.858477
vt 0.282836 0.761703
vt 0.353573 0.768185
vt 0.353573 0.851994
vt 0.282836 0.687569
vt 0.353573 0.703984
vt 0.405356 0.785896
vt 0.405356 0.834283
vt 0.282836 0.932610
vt 0.353573 0.916196
vt 0.405356 0.748830
vt 0.405356 0.871350
vt 0.581026 0.886096
vt 0.581026 0.795158
vt 0.651763 0.795158
vt 0.651763 0.873913
vt 0.581026 0.704220
vt 0.651763 0.716404
vt 0.703546 0.795158
vt 0.703546 0.840627
vt 0.703546 0.749689
vt 0.001992 0.264625
vt 0.001992 0.130726
vt 0.115007 0.120369
vt 0.115007 0.274982
vt 0.001992 0.028154
vt 0.115007 0.001929
vt 0.228021 0.130726
vt 0.228021 0.264625
vt 0.001992 0.367198
vt 0.115007 0.393423
vt 0.228021 0.028154
vt 0.310754 0.159023
vt 0.310754 0.236329
vt 0.228021 0.367198
vt 0.310754 0.099802
vt 0.310754 0.295549
vt 0.726895 0.391467
vt 0.852719 0.391467
vt 0.852719 0.504482
vt 0.707430 0.504482
vt 0.978543 0.391467
vt 0.998008 0.504482
vt 0.852719 0.617496
vt 0.726895 0.617496
vt 0.978543 0.617496
vt 0.852719 0.700229
vt 0.780075 0.700229
vt 0.925364 0.700229
vt 0.534075 0.853697
vt 0.492170 0.877891
vt 0.479887 0.808228
vt 0.573743 0.886983
vt 0.501163 0.928887
vt 0.444519 0.869489
vt 0.550624 0.808228
vt 0.418627 0.914334
vt 0.413416 0.832422
vt 0.534075 0.762759
vt 0.413416 0.784035
vt 0.492170 0.738566
vt 0.444519 0.746968
vt 0.501162 0.687569
vt 0.573743 0.729474
vt 0.418627 0.702123
vt 0.510691 0.267346
vt 0.443741 0.306000
vt 0.424116 0.194702
vt 0.574067 0.320526
vt 0.458108 0.387475
vt 0.367609 0.292576
vt 0.537131 0.194702
vt 0.326243 0.364224
vt 0.317917 0.233355
vt 0.510691 0.122058
vt 0.317917 0.156049
vt 0.443741 0.083404
vt 0.367609 0.096828
vt 0.458108 0.001929
vt 0.574067 0.068878
vt 0.326243 0.025180
vt 0.159501 0.687569
vt 0.243310 0.735956
vt 0.276409 0.826894
vt 0.243310 0.917832
vt 0.159501 0.966219
vt 0.064197 0.949415
vt 0.001992 0.875282
vt 0.001992 0.778507
vt 0.064197 0.704374
vt 0.798959 0.001929
vt 0.914919 0.068878
vt 0.960715 0.194702
vt 0.914919 0.320526
vt 0.798959 0.387475
vt 0.667094 0.364224
vt 0.581026 0.261651
vt 0.581026 0.127752
vt 0.667095 0.025180
vt 0.782343 0.704220
vt 0.782343 0.788029
vt 0.711606 0.791320
vt 0.711606 0.718740
vt 0.782343 0.883333
vt 0.711606 0.873856
vt 0.789564 0.883333
vt 0.789564 0.788029
vt 0.860301 0.791321
vt 0.860301 0.873856
vt 0.789564 0.704220
vt 0.860301 0.718740
vt 0.701295 0.414665
vt 0.701295 0.530624
vt 0.588280 0.525366
vt 0.588280 0.391467
vt 0.701295 0.662489
vt 0.588280 0.677630
vt 0.475265 0.530624
vt 0.475265 0.414665
vt 0.475265 0.662489
vt 0.243101 0.668437
vt 0.243101 0.536572
vt 0.356115 0.531314
vt 0.356115 0.683578
vt 0.243101 0.420612
vt 0.356115 0.397415
vt 0.469130 0.536572
vt 0.469130 0.668437
vt 0.469130 0.420612
vn 0.484867 0.244169 -0.839813
vn 0.484867 0.244169 -0.839813
vn 0.484867 0.244169 -0.839813
vn 0.484867 0.244169 -0.839813
vn -0.168392 0.244169 -0.955000
vn -0.168392 0.244169 -0.955000
vn -0.168392 0.244169 -0.955000
vn -0.168392 0.244169 -0.955000
vn -0.742858 0.244169 -0.623332
vn -0.742858 0.244169 -0.623332
vn -0.742858 0.244169 -0.623332
vn -0.742858 0.244169 -0.623332
vn -0.969733 0.244169 -0.000000
vn -0.969733 0.244169 -0.000000
vn -0.969733 0.244169 -0.000000
vn -0.969733 0.244169 -0.000000
vn -0.742858 0.244169 0.623332
vn -0.742858 0.244169 0.623332
vn -0.742858 0.244169 0.623332
vn -0.742858 0.244169 0.623332
vn -0.168392 0.244169 0.955000
vn -0.168392 0.244169 0.955000
vn -0.168392 0.244169 0.955000
vn -0.168392 0.244169 0.955000
vn 0.484866 0.244169 0.839813
vn 0.484866 0.244169 0.839813
vn 0.484866 0.244169 0.839813
vn 0.484866 0.244169 0.839813
vn 0.911251 0.244169 0.331668
vn 0.911251 0.244169 0.331668
vn 0.911251 0.244169 0.331668
vn 0.911251 0.244169 0.331668
vn 0.911251 0.244169 -0.331668
vn 0.911251 0.244169 -0.331668
vn 0.911251 0.244169 -0.331668
vn 0.911251 0.244169 -0.331668
vn 0.364370 0.684791 -0.631107
vn 0.364370 0.684791 -0.631107
vn 0.364370 0.684791 -0.631107
vn 0.364370 0.684791 -0.631107
vn -0.126544 0.684791 -0.717668
vn -0.126544 0.684791 -0.717668
vn -0.126544 0.684791 -0.717668
vn -0.126544 0.684791 -0.717668
vn -0.558247 0.684791 -0.468425
vn -0.558247 0.684791 -0.468425
vn -0.558247 0.684791 -0.468425
vn -0.558247 0.684791 -0.468425
vn -0.728740 0.684791 0.000000
vn -0.728740 0.684791 0.000000
vn -0.728740 0.684791 0.000000
vn -0.728740 0.684791 0.000000
vn -0.558247 0.684791 0.468425
vn -0.558247 0.684791 0.468425
vn -0.558247 0.684791 0.468425
vn -0.558247 0.684791 0.468425
vn -0.126544 0.684791 0.717668
vn -0.126544 0.684791 0.717668
vn -0.126544 0.684791 0.717668
vn -0.126544 0.684791 0.717668
vn 0.364370 0.684791 0.631107
vn 0.364370 0.684791 0.631107
vn 0.364370 0.684791 0.631107
vn 0.364370 0.684791 0.631107
vn 0.684791 0.684791 0.249244
vn 0.684791 0.684791 0.249244
vn 0.684791 0.684791 0.249244
vn 0.684791 0.684791 0.249244
vn 0.684791 0.684791 -0.249244
vn 0.684791 0.684791 -0.249244
vn 0.684791 0.684791 -0.249244
vn 0.684791 0.684791 -0.249244
vn 0.085220 0.985368 -0.147605
vn 0.085220 0.985368 -0.147605
vn 0.085220 0.985368 -0.147605
vn -0.029596 0.985368 -0.167850
vn -0.029596 0.985368 -0.167850
vn -0.029596 0.985368 -0.167850
vn -0.130564 0.985368 -0.109556
vn -0.130564 0.985368 -0.109556
vn -0.130564 0.985368 -0.109556
vn -0.170439 0.985368 0.000001
vn -0.170439 0.985368 0.000001
vn -0.170439 0.985368 0.000001
vn -0.130564 0.985368 0.109556
vn -0.130564 0.985368 0.109556
vn -0.130564 0.985368 0.109556
vn -0.029597 0.985368 0.167850
vn -0.029597 0.985368 0.167850
vn -0.029597 0.985368 0.167850
vn 0.085220 0.985368 0.147605
vn 0.085220 0.985368 0.147605
vn 0.085220 0.985368 0.147605
vn 0.160161 0.985368 0.058294
vn 0.160161 0.985368 0.058294
vn 0.160161 0.985368 0.058294
vn 0.160161 0.985368 -0.058294
vn 0.160161 0.985368 -0.058294
vn 0.160161 0.985368 -0.058294
vn 0.484866 -0.244169 -0.839813
vn 0.484866 -0.244169 -0.839813
vn 0.484866 -0.244169 -0.839813
vn 0.484866 -0.244169 -0.839813
vn -0.168392 -0.244169 -0.955000
vn -0.168392 -0.244169 -0.955000
vn -0.168392 -0.244169 -0.955000
vn -0.168392 -0.244169 -0.955000
vn -0.742858 -0.244169 -0.623332
vn -0.742858 -0.244169 -0.623332
vn -0.742858 -0.244169 -0.623332
vn -0.742858 -0.244169 -0.623332
vn -0.969733 -0.244169 -0.000000
vn -0.969733 -0.244169 -0.000000
vn -0.969733 -0.244169 -0.000000
vn -0.969733 -0.244169 -0.000000
vn -0.742858 -0.244169 0.623332
vn -0.742858 -0.244169 0.623332
vn -0.742858 -0.244169 0.623332
vn -0.742858 -0.244169 0.623332
vn -0.168392 -0.244169 0.955000
vn -0.168392 -0.244169 0.955000
vn -0.168392 -0.244169 0.955000
vn -0.168392 -0.244169 0.955000
vn 0.484866 -0.244169 0.839813
vn 0.484866 -0.244169 0.839813
vn 0.484866 -0.244169 0.839813
vn 0.484866 -0.244169 0.839813
vn 0.911251 -0.244169 0.331668
vn 0.911251 -0.244169 0.331668
vn 0.911251 -0.244169 0.331668
vn 0.911251 -0.244169 0.331668
vn 0.911251 -0.244169 -0.331668
vn 0.911251 -0.244169 -0.331668
vn 0.911251 -0.244169 -0.331668
vn 0.911251 -0.244169 -0.331668
vn 0.484866 0.244169 -0.839813
vn 0.484866 0.244169 -0.839813
vn 0.484866 0.244169 -0.839813
vn 0.484866 0.244169 -0.839813
vn -0.168392 0.244169 -0.955000
vn -0.168392 0.244169 -0.955000
vn -0.168392 0.244169 -0.955000
vn -0.168392 0.244169 -0.955000
vn -0.742858 0.244169 -0.623332
vn -0.742858 0.244169 -0.623332
vn -0.742858 0.244169 -0.623332
vn -0.742858 0.244169 -0.623332
vn -0.969733 0.244169 -0.000000
vn -0.969733 0.244169 -0.000000
vn -0.969733 0.244169 -0.000000
vn -0.969733 0.244169 -0.000000
vn -0.742858 0.244169 0.623332
vn -0.742858 0.244169 0.623332
vn -0.742858 0.244169 0.623332
vn -0.742858 0.244169 0.623332
vn -0.168392 0.244169 0.955000
vn -0.168392 0.244169 0.955000
vn -0.168392 0.244169 0.955000
vn -0.168392 0.244169 0.955000
vn 0.484866 0.244169 0.839813
vn 0.484866 0.244169 0.839813
vn 0.484866 0.244169 0.839813
vn 0.484866 0.244169 0.839813
vn 0.911251 0.244169 0.331668
vn 0.911251 0.244169 0.331668
vn 0.911251 0.244169 0.331668
vn 0.911251 0.244169 0.331668
vn 0.911251 0.244169 -0.331668
vn 0.911251 0.244169 -0.331668
vn 0.911251 0.244169 -0.331668
vn 0.911251 0.244169 -0.331668
vn 0.364370 0.684791 -0.631107
vn 0.364370 0.684791 -0.631107
vn 0.364370 0.684791 -0.631107
vn 0.364370 0.684791 -0.631107
vn -0.126544 0.684791 -0.717668
vn -0.126544 0.684791 -0.717668
vn -0.126544 0.684791 -0.717668
vn -0.126544 0.684791 -0.717668
vn -0.558247 0.684791 -0.468425
vn -0.558247 0.684791 -0.468425
vn -0.558247 0.684791 -0.468425
vn -0.558247 0.684791 -0.468425
vn -0.728739 0.684791 0.000000
vn -0.728739 0.684791 0.000000
vn -0.728739 0.684791 0.000000
vn -0.728739 0.684791 0.000000
vn -0.558247 0.684791 0.468424
vn -0.558247 0.684791 0.468425
vn -0.558247 0.684791 0.468425
vn -0.558247 0.684791 0.468425
vn -0.126544 0.684791 0.717668
vn -0.126544 0.684791 0.717668
vn -0.126544 0.684791 0.717668
vn -0.126544 0.684791 0.717668
vn 0.364370 0.684791 0.631107
vn 0.364370 0.684791 0.631107
vn 0.364370 0.684791 0.631107
vn 0.364370 0.684791 0.631107
vn 0.684791 0.684791 0.249244
vn 0.684791 0.684791 0.249244
vn 0.684791 0.684791 0.249244
vn 0.684791 0.684791 0.249244
vn 0.684791 0.684791 -0.249243
vn 0.684791 0.684791 -0.249243
vn 0.684791 0.684791 -0.249243
vn 0.684791 0.684791 -0.249243
vn 0.085220 0.985368 -0.147605
vn 0.085220 0.985368 -0.147605
vn 0.085220 0.985368 -0.147605
vn -0.029597 0.985368 -0.167850
vn -0.029597 0.985368 -0.167850
vn -0.029597 0.985368 -0.167850
vn -0.130564 0.985368 -0.109557
vn -0.130564 0.985368 -0.109557
vn -0.130564 0.985368 -0.109557
vn -0.170440 0.985368 0.000000
vn -0.170440 0.985368 0.000000
vn -0.170440 0.985368 0.000000
vn -0.130564 0.985368 0.109557
vn -0.130564 0.985368 0.109557
vn -0.130564 0.985368 0.109557
vn -0.029597 0.985368 0.167851
vn -0.029597 0.985368 0.167851
vn -0.029597 0.985368 0.167851
vn 0.085220 0.985368 0.147605
vn 0.085220 0.985368 0.147605
vn 0.085220 0.985368 0.147605
vn 0.160161 0.985368 0.058294
vn 0.160161 0.985368 0.058294
vn 0.160161 0.985368 0.058294
vn 0.160161 0.985368 -0.058294
vn 0.160161 0.985368 -0.058294
vn 0.160161 0.985368 -0.058294
vn 0.000000 -1.000000 0.000000
vn 0.000000 -1.000000 0.000000
vn 0.000000 -1.000000 0.000000
vn 0.000000 -1.000000 0.000000
vn 0.000000 -1.000000 0.000000
vn 0.000000 -1.000000 0.000000
vn 0.000000 -1.000000 0.000000
vn 0.000000 -1.000000 0.000000
vn 0.000000 -1.000000 0.000000
vn 0.000000 -1.000000 0.000000
vn 0.000000 -1.000000 0.000000
vn 0.000000 -1.000000 0.000000
vn 0.000000 -1.000000 0.000000
vn 0.000000 -1.000000 0.000000
vn 0.000000 -1.000000 0.000000
vn 0.000000 -1.000000 0.000000
vn 0.000000 -1.000000 0.000000
vn 0.000000 -1.000000 0.000000
s off
usemtl initialShadingGroup
f 1/100/1 2/101/2 11/102/3 10/103/4
f 2/101/5 3/104/6 12/105/7 11/102/8
f 3/9/9 4/1/10 13/4/11 12/10/12
f 4/1/13 5/2/14 14/3/15 13/4/16
f 5/2/17 6/5/18 15/6/19 14/3/20
f 6/106/21 7/107/22 16/108/23 15/109/24
f 7/107/25 8/110/26 17/111/27 16/108/28
f 8/13/29 9/14/30 18/15/31 17/16/32
f 9/14/33 1/17/34 10/18/35 18/15/36
f 10/53/37 11/54/38 20/51/39 19/50/40
f 11/54/41 12/57/42 21/55/43 20/51/44
f 12/10/45 13/4/46 22/8/47 21/12/48
f 13/4/49 14/3/50 23/7/51 22/8/52
f 14/3/53 15/6/54 24/11/55 23/7/56
f 15/65/57 16/63/58 25/61/59 24/62/60
f 16/63/61 17/64/62 26/59/63 25/61/64
f 17/16/65 18/15/66 27/19/67 26/20/68
f 18/15/69 10/18/70 19/21/71 27/19/72
f 19/50/73 20/51/74 28/52/75
f 20/51/76 21/55/77 28/52/78
f 21/55/79 22/58/80 28/52/81
f 22/58/82 23/60/83 28/52/84
f 23/60/85 24/62/86 28/52/87
f 24/62/88 25/61/89 28/52/90
f 25/61/91 26/59/92 28/52/93
f 26/59/94 27/56/95 28/52/96
f 27/56/97 19/50/98 28/52/99
f 29/112/100 30/113/101 39/114/102 38/115/103
f 30/113/104 31/116/105 40/117/106 39/114/107
f 31/30/108 32/22/109 41/25/110 40/31/111
f 32/22/112 33/23/113 42/24/114 41/25/115
f 33/23/116 34/26/117 43/27/118 42/24/119
f 34/121/120 35/122/121 44/123/122 43/124/123
f 35/122/124 36/125/125 45/126/126 44/123/127
f 36/38/128 37/39/129 46/40/130 45/41/131
f 37/39/132 29/42/133 38/43/134 46/40/135
f 38/115/136 39/114/137 48/118/138 47/119/139
f 39/114/140 40/117/141 49/120/142 48/118/143
f 40/31/144 41/25/145 50/29/146 49/35/147
f 41/25/148 42/24/149 51/28/150 50/29/151
f 42/24/152 43/27/153 52/32/154 51/28/155
f 43/124/156 44/123/157 53/127/158 52/128/159
f 44/123/160 45/126/161 54/129/162 53/127/163
f 45/41/164 46/40/165 55/44/166 54/45/167
f 46/40/168 38/43/169 47/46/170 55/44/171
f 47/69/172 48/70/173 57/67/174 56/66/175
f 48/70/176 49/73/177 58/71/178 57/67/179
f 49/35/180 50/29/181 59/34/182 58/37/183
f 50/29/184 51/28/185 60/33/186 59/34/187
f 51/28/188 52/32/189 61/36/190 60/33/191
f 52/81/192 53/79/193 62/77/194 61/78/195
f 53/79/196 54/80/197 63/75/198 62/77/199
f 54/45/200 55/44/201 64/47/202 63/48/203
f 55/44/204 47/46/205 56/49/206 64/47/207
f 56/66/208 57/67/209 65/68/210
f 57/67/211 58/71/212 65/68/213
f 58/71/214 59/74/215 65/68/216
f 59/74/217 60/76/218 65/68/219
f 60/76/220 61/78/221 65/68/222
f 61/78/223 62/77/224 65/68/225
f 62/77/226 63/75/227 65/68/228
f 63/75/229 64/72/230 65/68/231
f 64/72/232 56/66/233 65/68/234
f 2/82/235 1/83/236 9/84/237 8/85/238 7/86/239 6/87/240 5/88/241 4/89/242 3/90/243
f 30/91/244 29/92/245 37/93/246 36/94/247 35/95/248 34/96/249 33/97/250 32/98/251 31/99/252
