# This file uses centimeters as units for non-parametric coordinates.

mtllib DeskPaperMesh.mtl
v -0.179767 -0.004984 -0.240641
v 0.179767 -0.004984 -0.240642
v -0.179767 -0.004984 0.240641
v 0.179767 -0.004984 0.240641
v -0.179767 0.004984 0.240641
v 0.179767 0.004984 0.240641
v -0.179767 0.004984 -0.240641
v 0.179767 0.004984 -0.240642
vt 0.913273 0.583181
vt 0.913273 0.501335
vt 0.995117 0.501335
vt 0.995117 0.583181
vt 0.004883 0.583181
vt 0.004883 0.501335
vt 0.086727 0.501335
vt 0.086727 0.583181
vt 0.091396 0.501335
vt 0.162135 0.501335
vt 0.162135 0.572075
vt 0.091396 0.572075
vt 0.500368 0.501335
vt 0.571107 0.501335
vt 0.571107 0.572075
vt 0.500368 0.572075
vt 0.500368 0.004883
vt 0.991905 0.004883
vt 0.991905 0.496420
vt 0.500368 0.496420
vt 0.004883 0.004883
vt 0.496420 0.004883
vt 0.496420 0.496421
vt 0.004883 0.496420
vn 0.000000 -1.000000 0.000000
vn 0.000000 -1.000000 0.000000
vn 0.000000 -1.000000 0.000000
vn 0.000000 -1.000000 0.000000
vn -0.000001 0.000000 1.000000
vn -0.000001 0.000000 1.000000
vn -0.000001 0.000000 1.000000
vn -0.000001 0.000000 1.000000
vn 0.000000 1.000000 0.000000
vn 0.000000 1.000000 0.000000
vn 0.000000 1.000000 0.000000
vn 0.000000 1.000000 0.000000
vn -0.000001 0.000000 -1.000000
vn -0.000001 0.000000 -1.000000
vn -0.000001 0.000000 -1.000000
vn -0.000001 0.000000 -1.000000
vn 1.000000 0.000000 0.000000
vn 1.000000 0.000000 0.000000
vn 1.000000 0.000000 0.000000
vn 1.000000 0.000000 0.000000
vn -1.000000 0.000000 0.000000
vn -1.000000 0.000000 0.000000
vn -1.000000 0.000000 0.000000
vn -1.000000 0.000000 0.000000
s off
usemtl initialShadingGroup
f 1/17/1 2/18/2 4/19/3 3/20/4
f 3/9/5 4/10/6 6/11/7 5/12/8
f 5/21/9 6/22/10 8/23/11 7/24/12
f 7/13/13 8/14/14 2/15/15 1/16/16
f 2/1/17 8/2/18 6/3/19 4/4/20
f 7/5/21 1/6/22 3/7/23 5/8/24
