# This file uses centimeters as units for non-parametric coordinates.

mtllib FirePitMesh.mtl
v -0.158139 -0.033867 0.167550
v 0.158139 -0.033867 0.167550
v -0.255286 0.884539 0.264697
v 0.255286 0.884539 0.264697
v -0.255286 0.884539 -0.245875
v 0.255286 0.884539 -0.245875
v -0.158139 -0.033867 -0.148728
v 0.158139 -0.033867 -0.148728
v -0.255286 0.923009 0.264697
v 0.255286 0.923009 0.264697
v 0.255286 0.923009 -0.245875
v -0.255286 0.923009 -0.245875
v -0.285573 0.882257 0.294984
v -0.296719 0.892595 0.306130
v 0.296719 0.892595 0.306130
v 0.285573 0.882257 0.294984
v 0.285573 0.925291 0.294984
v 0.296719 0.914954 0.306130
v -0.296719 0.914954 0.306130
v -0.285573 0.925291 0.294984
v 0.296719 0.892595 -0.287308
v 0.285573 0.882257 -0.276162
v 0.285573 0.925291 -0.276162
v 0.296719 0.914954 -0.287308
v -0.296719 0.892595 -0.287308
v -0.285573 0.882257 -0.276162
v -0.285573 0.925291 -0.276162
v -0.296719 0.914954 -0.287308
v -0.270320 1.036121 0.279732
v 0.270320 1.036121 0.279732
v 0.270320 1.036121 -0.260909
v -0.270320 1.036121 -0.260909
v -0.200913 1.063819 0.210325
v 0.200913 1.063819 0.210325
v 0.200913 1.063819 -0.191502
v -0.200913 1.063819 -0.191502
v -0.292545 1.034983 0.301957
v -0.300225 1.042279 0.309636
v 0.300225 1.042279 0.309636
v 0.292545 1.034983 0.301957
v 0.292545 1.064958 0.301957
v 0.300225 1.057662 0.309636
v -0.300225 1.057662 0.309636
v -0.292545 1.064958 0.301957
v 0.300225 1.042279 -0.290814
v 0.292545 1.034983 -0.283134
v 0.292545 1.064958 -0.283134
v 0.300225 1.057662 -0.290814
v -0.300225 1.042279 -0.290814
v -0.292545 1.034983 -0.283134
v -0.292545 1.064958 -0.283134
v -0.300225 1.057662 -0.290814
v -0.149693 0.857449 0.159104
v 0.149693 0.857449 0.159104
v 0.149693 0.857449 -0.140281
v -0.149693 0.857449 -0.140281
vt 0.481084 0.001884
vt 0.612558 0.001884
vt 0.652940 0.383655
vt 0.440701 0.383655
vt 0.701316 0.001884
vt 0.832789 0.001884
vt 0.873172 0.383655
vt 0.660933 0.383655
vt 0.152444 0.634332
vt 0.152444 0.387646
vt 0.161738 0.387646
vt 0.161738 0.634332
vt 0.148147 0.629699
vt 0.148147 0.392280
vt 0.166036 0.629699
vt 0.166036 0.392280
vt 0.429289 0.634332
vt 0.429289 0.387646
vt 0.438584 0.387646
vt 0.438584 0.634332
vt 0.424992 0.392280
vt 0.424992 0.629699
vt 0.442881 0.392280
vt 0.442881 0.629699
vt 0.341305 0.856812
vt 0.341305 0.644573
vt 0.388324 0.638324
vt 0.388324 0.863062
vt 0.450446 0.859727
vt 0.450446 0.647488
vt 0.497465 0.641239
vt 0.497465 0.865977
vt 0.732845 0.637247
vt 0.732845 0.387646
vt 0.739239 0.387646
vt 0.739239 0.637247
vt 0.729812 0.634055
vt 0.729812 0.390839
vt 0.742272 0.634055
vt 0.742272 0.390839
vt 0.884197 0.251484
vt 0.884197 0.001884
vt 0.890592 0.001884
vt 0.890592 0.251484
vt 0.881164 0.005076
vt 0.881164 0.248292
vt 0.893625 0.005076
vt 0.893625 0.248292
vt 0.684352 0.641239
vt 0.684352 0.808273
vt 0.598566 0.786982
vt 0.598566 0.662530
vt 0.871451 0.641239
vt 0.871451 0.808273
vt 0.785666 0.786982
vt 0.785666 0.662530
vt 0.735948 0.812265
vt 0.860399 0.812265
vt 0.860399 0.936716
vt 0.735948 0.936716
vt 0.866535 0.812265
vt 0.998008 0.812265
vt 0.998008 0.943738
vt 0.866535 0.943738
vt 0.189394 0.617109
vt 0.401634 0.617109
vt 0.414224 0.629699
vt 0.176804 0.629699
vt 0.401634 0.404870
vt 0.414224 0.392280
vt 0.172171 0.634332
vt 0.418857 0.634332
vt 0.189394 0.404870
vt 0.176804 0.392280
vt 0.418857 0.387646
vt 0.172171 0.387646
vt 0.019215 0.655547
vt 0.019215 0.867786
vt 0.006625 0.880376
vt 0.006625 0.642957
vt 0.231454 0.867786
vt 0.244045 0.880376
vt 0.001992 0.638324
vt 0.001992 0.885009
vt 0.231454 0.655547
vt 0.244045 0.642957
vt 0.248678 0.638324
vt 0.248678 0.885009
vt 0.760838 0.624816
vt 0.985577 0.624816
vt 0.994816 0.634055
vt 0.751600 0.634055
vt 0.985577 0.400078
vt 0.994816 0.390839
vt 0.748407 0.637247
vt 0.998008 0.637247
vt 0.760838 0.400078
vt 0.751600 0.390839
vt 0.998008 0.387646
vt 0.748407 0.387646
vt 0.682393 0.428929
vt 0.515359 0.428929
vt 0.477268 0.390839
vt 0.720484 0.390839
vt 0.515359 0.595964
vt 0.477268 0.634055
vt 0.723676 0.387646
vt 0.474076 0.387646
vt 0.682393 0.595964
vt 0.720484 0.634055
vt 0.723676 0.637247
vt 0.474076 0.637247
vt 0.042375 0.001884
vt 0.173848 0.001884
vt 0.214231 0.383655
vt 0.001992 0.383655
vt 0.220470 0.001884
vt 0.432709 0.001884
vt 0.392326 0.383655
vt 0.260852 0.383655
vt 0.255551 0.885009
vt 0.255551 0.638324
vt 0.264845 0.638324
vt 0.264845 0.885009
vt 0.280437 0.638324
vt 0.280437 0.885009
vt 0.271142 0.885009
vt 0.271142 0.638324
vt 0.286734 0.856812
vt 0.286734 0.644573
vt 0.333753 0.638324
vt 0.333753 0.863062
vt 0.442895 0.644573
vt 0.442895 0.856812
vt 0.395875 0.863062
vt 0.395875 0.638324
vt 0.461546 0.637247
vt 0.461546 0.387646
vt 0.467940 0.387646
vt 0.467940 0.637247
vt 0.455411 0.387646
vt 0.455411 0.637247
vt 0.449016 0.637247
vt 0.449016 0.387646
vt 0.505017 0.808273
vt 0.505017 0.641239
vt 0.590802 0.662530
vt 0.590802 0.786982
vt 0.777902 0.641239
vt 0.777902 0.808273
vt 0.692116 0.786982
vt 0.692116 0.662530
vn 0.000000 -0.105191 0.994452
vn 0.000000 -0.105191 0.994452
vn 0.000000 -0.105191 0.994452
vn 0.000000 -0.105191 0.994452
vn 0.000000 1.000000 0.000000
vn 0.000000 1.000000 0.000000
vn 0.000000 1.000000 0.000000
vn 0.000000 1.000000 0.000000
vn 0.000000 -0.105191 -0.994452
vn 0.000000 -0.105191 -0.994452
vn 0.000000 -0.105191 -0.994452
vn 0.000000 -0.105191 -0.994452
vn 0.000000 -1.000000 0.000000
vn 0.000000 -1.000000 0.000000
vn 0.000000 -1.000000 0.000000
vn 0.000000 -1.000000 0.000000
vn 0.994452 -0.105191 0.000000
vn 0.994452 -0.105191 0.000000
vn 0.994452 -0.105191 0.000000
vn 0.994452 -0.105191 0.000000
vn -0.994452 -0.105191 0.000000
vn -0.994452 -0.105191 0.000000
vn -0.994452 -0.105191 0.000000
vn -0.994452 -0.105191 0.000000
vn -0.680027 -0.733187 0.000000
vn -0.680027 -0.733187 0.000000
vn -0.680027 -0.733187 0.000000
vn -0.680027 -0.733187 0.000000
vn 0.000000 -0.733188 0.680026
vn 0.000000 -0.733188 0.680026
vn 0.000000 -0.733188 0.680026
vn 0.000000 -0.733188 0.680026
vn 0.680027 -0.733187 0.000000
vn 0.680027 -0.733187 0.000000
vn 0.680027 -0.733187 0.000000
vn 0.680027 -0.733187 0.000000
vn 0.680027 0.733187 0.000000
vn 0.680027 0.733187 0.000000
vn 0.680027 0.733187 0.000000
vn 0.680027 0.733187 0.000000
vn 0.000000 0.733189 0.680025
vn 0.000000 0.733189 0.680025
vn 0.000000 0.733189 0.680025
vn 0.000000 0.733189 0.680025
vn -0.680027 0.733187 0.000000
vn -0.680027 0.733187 0.000000
vn -0.680027 0.733187 0.000000
vn -0.680027 0.733187 0.000000
vn 0.000000 -0.733188 -0.680026
vn 0.000000 -0.733188 -0.680026
vn 0.000000 -0.733188 -0.680026
vn 0.000000 -0.733188 -0.680026
vn 0.000000 0.733189 -0.680025
vn 0.000000 0.733189 -0.680025
vn 0.000000 0.733189 -0.680025
vn 0.000000 0.733189 -0.680025
vn 0.000000 0.000000 1.000000
vn 0.000000 0.000000 1.000000
vn 0.000000 0.000000 1.000000
vn 0.000000 0.000000 1.000000
vn 1.000000 0.000000 0.000000
vn 1.000000 0.000000 0.000000
vn 1.000000 0.000000 0.000000
vn 1.000000 0.000000 0.000000
vn 0.000000 0.000000 -1.000000
vn 0.000000 0.000000 -1.000000
vn 0.000000 0.000000 -1.000000
vn 0.000000 0.000000 -1.000000
vn -1.000000 0.000000 0.000000
vn -1.000000 0.000000 0.000000
vn -1.000000 0.000000 0.000000
vn -1.000000 0.000000 0.000000
vn 0.037620 -0.998584 -0.037620
vn -0.037620 -0.998584 -0.037620
vn -0.037620 -0.998584 -0.037620
vn 0.037620 -0.998584 -0.037620
vn -0.037620 0.998584 -0.037620
vn 0.037620 0.998584 -0.037620
vn 0.037620 0.998584 -0.037620
vn -0.037620 0.998584 -0.037620
vn -0.037620 -0.998584 0.037620
vn -0.037620 -0.998584 0.037620
vn -0.037620 0.998584 0.037620
vn -0.037620 0.998584 0.037620
vn 0.037620 -0.998584 0.037620
vn 0.037620 -0.998584 0.037620
vn 0.037620 0.998584 0.037620
vn 0.037620 0.998584 0.037620
vn 0.000000 -0.131758 0.991282
vn 0.000000 -0.131758 0.991282
vn 0.000000 -0.131758 0.991282
vn 0.000000 -0.131758 0.991282
vn 0.991282 -0.131758 0.000000
vn 0.991282 -0.131758 0.000000
vn 0.991282 -0.131758 0.000000
vn 0.991282 -0.131758 0.000000
vn 0.000000 -0.131758 -0.991282
vn 0.000000 -0.131758 -0.991282
vn 0.000000 -0.131758 -0.991282
vn 0.000000 -0.131758 -0.991282
vn -0.991282 -0.131758 0.000000
vn -0.991282 -0.131758 0.000000
vn -0.991282 -0.131758 0.000000
vn -0.991282 -0.131758 0.000000
vn -0.688783 -0.724967 0.000000
vn -0.688783 -0.724967 0.000000
vn -0.688783 -0.724967 0.000000
vn -0.688783 -0.724967 0.000000
vn 0.000000 -0.724970 0.688780
vn 0.000000 -0.724970 0.688780
vn 0.000000 -0.724970 0.688780
vn 0.000000 -0.724970 0.688780
vn 0.688783 -0.724967 0.000000
vn 0.688783 -0.724967 0.000000
vn 0.688783 -0.724967 0.000000
vn 0.688783 -0.724967 0.000000
vn 0.688783 0.724967 0.000000
vn 0.688783 0.724967 0.000000
vn 0.688783 0.724967 0.000000
vn 0.688783 0.724967 0.000000
vn 0.000000 0.724968 0.688783
vn 0.000000 0.724967 0.688783
vn 0.000000 0.724967 0.688783
vn 0.000000 0.724968 0.688783
vn -0.688783 0.724967 0.000000
vn -0.688783 0.724967 0.000000
vn -0.688783 0.724967 0.000000
vn -0.688783 0.724967 0.000000
vn 0.000000 -0.724970 -0.688780
vn 0.000000 -0.724970 -0.688780
vn 0.000000 -0.724970 -0.688780
vn 0.000000 -0.724970 -0.688780
vn 0.000000 0.724967 -0.688783
vn 0.000000 0.724968 -0.688783
vn 0.000000 0.724968 -0.688783
vn 0.000000 0.724967 -0.688783
vn 0.000000 0.000000 1.000000
vn 0.000000 0.000000 1.000000
vn 0.000000 0.000000 1.000000
vn 0.000000 0.000000 1.000000
vn 1.000000 0.000000 0.000000
vn 1.000000 0.000000 0.000000
vn 1.000000 0.000000 0.000000
vn 1.000000 0.000000 0.000000
vn 0.000000 0.000000 -1.000000
vn 0.000000 0.000000 -1.000000
vn 0.000000 0.000000 -1.000000
vn 0.000000 0.000000 -1.000000
vn -1.000000 0.000000 0.000000
vn -1.000000 0.000000 0.000000
vn -1.000000 0.000000 0.000000
vn -1.000000 0.000000 0.000000
vn 0.025600 -0.999344 -0.025600
vn -0.025600 -0.999344 -0.025600
vn -0.025600 -0.999344 -0.025600
vn 0.025600 -0.999344 -0.025600
vn -0.006213 0.999961 -0.006213
vn 0.006213 0.999961 -0.006213
vn 0.006213 0.999961 -0.006213
vn -0.006213 0.999961 -0.006213
vn -0.025600 -0.999344 0.025600
vn -0.025600 -0.999344 0.025600
vn -0.006213 0.999961 0.006213
vn -0.006213 0.999961 0.006213
vn 0.025600 -0.999344 0.025600
vn 0.025600 -0.999344 0.025600
vn 0.006213 0.999961 0.006213
vn 0.006213 0.999961 0.006213
vn 0.000000 0.240889 -0.970553
vn 0.000000 0.240889 -0.970553
vn 0.000000 0.240889 -0.970553
vn 0.000000 0.240889 -0.970553
vn -0.970553 0.240889 0.000000
vn -0.970553 0.240889 0.000000
vn -0.970553 0.240889 0.000000
vn -0.970553 0.240889 0.000000
vn 0.000000 0.240889 0.970553
vn 0.000000 0.240889 0.970553
vn 0.000000 0.240889 0.970553
vn 0.000000 0.240889 0.970553
vn 0.970553 0.240889 0.000000
vn 0.970553 0.240889 0.000000
vn 0.970553 0.240889 0.000000
vn 0.970553 0.240889 0.000000
s off
usemtl initialShadingGroup
f 1/113/1 2/114/2 4/115/3 3/116/4
f 53/57/5 54/58/6 55/59/7 56/60/8
f 5/117/9 6/118/10 8/119/11 7/120/12
f 7/61/13 8/62/14 2/63/15 1/64/16
f 2/1/17 8/2/18 6/3/19 4/4/20
f 7/5/21 1/6/22 3/7/23 5/8/24
f 13/21/25 14/18/26 25/17/27 26/22/28
f 14/71/29 13/68/30 16/67/31 15/72/32
f 15/9/33 16/13/34 22/14/35 21/10/36
f 17/15/37 18/12/38 24/11/39 23/16/40
f 18/83/41 17/80/42 20/79/43 19/84/44
f 19/19/45 20/23/46 27/24/47 28/20/48
f 21/75/49 22/70/50 26/74/51 25/76/52
f 23/86/53 24/87/54 28/88/55 27/82/56
f 14/121/57 15/122/58 18/123/59 19/124/60
f 15/9/61 21/10/62 24/11/63 18/12/64
f 21/125/65 25/126/66 28/127/67 24/128/68
f 25/17/69 14/18/70 19/19/71 28/20/72
s 1
f 3/65/73 4/66/74 16/67/75 13/68/76
s 2
f 10/77/77 9/78/78 20/79/79 17/80/80
s 1
f 4/66/74 6/69/81 22/70/82 16/67/75
s 2
f 11/85/83 10/77/77 17/80/80 23/86/84
s 1
f 6/69/81 5/73/85 26/74/86 22/70/82
s 2
f 12/81/87 11/85/83 23/86/84 27/82/88
s 1
f 5/73/85 3/65/73 13/68/76 26/74/86
s 2
f 9/78/78 12/81/87 27/82/88 20/79/79
s off
f 9/129/89 10/130/90 30/131/91 29/132/92
f 10/25/93 11/26/94 31/27/95 30/28/96
f 11/133/97 12/134/98 32/135/99 31/136/100
f 12/29/101 9/30/102 29/31/103 32/32/104
f 37/45/105 38/42/106 49/41/107 50/46/108
f 38/95/109 37/92/110 40/91/111 39/96/112
f 39/33/113 40/37/114 46/38/115 45/34/116
f 41/39/117 42/36/118 48/35/119 47/40/120
f 42/107/121 41/104/122 44/103/123 43/108/124
f 43/43/125 44/47/126 51/48/127 52/44/128
f 45/99/129 46/94/130 50/98/131 49/100/132
f 47/110/133 48/111/134 52/112/135 51/106/136
f 38/137/137 39/138/138 42/139/139 43/140/140
f 39/33/141 45/34/142 48/35/143 42/36/144
f 45/141/145 49/142/146 52/143/147 48/144/148
f 49/41/149 38/42/150 43/43/151 52/44/152
s 3
f 29/89/153 30/90/154 40/91/155 37/92/156
s 4
f 34/101/157 33/102/158 44/103/159 41/104/160
s 3
f 30/90/154 31/93/161 46/94/162 40/91/155
s 4
f 35/109/163 34/101/157 41/104/160 47/110/164
s 3
f 31/93/161 32/97/165 50/98/166 46/94/162
s 4
f 36/105/167 35/109/163 47/110/164 51/106/168
s 3
f 32/97/165 29/89/153 37/92/156 50/98/166
s 4
f 33/102/158 36/105/167 51/106/168 44/103/159
s off
f 33/145/169 34/146/170 54/147/171 53/148/172
f 34/49/173 35/50/174 55/51/175 54/52/176
f 35/149/177 36/150/178 56/151/179 55/152/180
f 36/53/181 33/54/182 53/55/183 56/56/184
