# This file uses centimeters as units for non-parametric coordinates.

mtllib GroundVillageTest1.mtl
v -62.168696 0.000002 19.638337
v -58.241030 0.000000 19.638337
v -51.070657 0.000000 19.638337
v -47.142988 0.000000 19.638337
v -43.215321 0.000000 19.638337
v -39.287654 0.000000 19.638337
v -35.359986 0.000000 19.638337
v -31.432320 0.000000 19.638337
v -27.504652 0.000000 19.638337
v -23.576983 2.989497 19.638337
v -19.649318 2.989497 19.638337
v -62.168696 0.000002 15.710669
v -58.241030 0.000000 15.710669
v -51.070657 0.000000 15.710669
v -47.142988 0.000000 15.710669
v -43.215321 0.000000 15.710669
v -39.287654 0.000000 15.710669
v -35.359986 0.000000 15.710669
v -31.432320 0.000000 15.710669
v -27.504652 0.000000 15.710669
v -23.576983 2.989497 15.710669
v -19.649318 2.989497 15.710669
v -62.168696 0.000002 11.783002
v -58.241030 0.000000 11.783002
v -51.070657 0.000000 11.783002
v -47.142988 0.000000 11.783002
v -43.215321 0.000000 11.783002
v -39.287654 0.000000 11.783002
v -35.359986 0.000000 11.783002
v -31.432320 0.000000 11.783002
v -27.504652 0.000000 11.783002
v -23.576983 2.989497 11.783002
v -19.649318 2.989497 11.783002
v -62.168696 3.442521 7.855334
v -58.241030 3.442518 7.855334
v -51.070657 -0.000001 7.855334
v -47.142988 0.000000 7.855334
v -43.215321 0.000000 7.855334
v -39.287654 0.000000 7.855334
v -35.359986 0.000000 7.855334
v -31.432320 2.015206 7.855334
v -27.504652 2.856892 7.855334
v -23.576983 2.989497 7.855334
v -19.649318 2.989497 7.855334
v -62.168696 5.905555 3.927667
v -58.241030 4.294780 3.927667
v -51.070657 -0.000001 3.927667
v -47.142988 0.000000 3.927667
v -43.215321 0.000000 3.927667
v -39.287654 0.000000 3.927667
v -35.359986 0.000000 3.927667
v -31.432320 2.015206 3.927667
v -27.504652 2.856892 3.927667
v -23.576983 2.856892 3.927667
v -19.649318 4.094480 3.927667
v -62.168696 5.905555 0.000000
v -58.241030 4.294780 0.000000
v -51.070657 0.464207 0.000000
v -47.142988 0.000000 0.000000
v -43.215321 0.000000 0.000000
v -39.287654 0.000000 0.000000
v -35.359986 0.000000 0.000000
v -31.432320 2.015206 0.000000
v -27.504652 2.856892 0.000000
v -23.576983 2.856892 0.000000
v -19.649318 4.094480 0.000000
v -62.168696 5.905555 -3.927668
v -58.241030 4.294780 -3.927668
v -51.070657 -0.000001 -3.927668
v -47.142988 0.000000 -3.927668
v -43.215321 0.000000 -3.927668
v -39.287654 0.000000 -3.927668
v -35.359986 0.000000 -3.927668
v -31.432320 2.015206 -3.927668
v -27.504652 2.856892 -3.927668
v -23.576983 2.856892 -3.927668
v -19.649318 4.094480 -3.927668
v -62.168696 5.905555 -7.855334
v -58.241030 4.294780 -7.855334
v -51.070657 2.338097 -7.855334
v -47.142988 2.338096 -7.855334
v -43.215321 0.000000 -7.855334
v -39.287654 0.000000 -7.855334
v -35.359986 0.000000 -7.855334
v -31.432320 2.015206 -7.855334
v -27.504652 2.856892 -7.855334
v -23.576983 2.856892 -7.855334
v -19.649318 4.094480 -7.855334
v -62.168696 5.905555 -11.783002
v -58.241030 5.905552 -11.783002
v -51.070657 2.338096 -11.783002
v -47.142988 2.338096 -11.783002
v -43.215321 0.000000 -11.783002
v -39.287654 0.000000 -11.783002
v -35.359986 0.000000 -11.783002
v -31.432320 4.836770 -11.783002
v -27.504652 4.836770 -11.783002
v -23.576983 4.369867 -11.783002
v -19.649318 4.094480 -11.783002
v -62.168696 5.905555 -15.710671
v -58.241030 5.905553 -15.710671
v -51.070657 2.338096 -15.710671
v -47.142988 2.338096 -15.710671
v -43.215321 3.533818 -15.710671
v -39.287654 3.533818 -15.710671
v -35.359986 3.533818 -15.710671
v -31.432320 6.921822 -15.710671
v -27.504652 6.921822 -15.710671
v -23.576983 5.504414 -15.710671
v -19.649318 4.094480 -15.710671
v -62.168696 9.244053 -22.821204
v -58.241030 9.244053 -22.821204
v -51.070657 9.244053 -22.821204
v -47.142988 9.244053 -22.821204
v -43.215321 9.329585 -22.821204
v -39.287654 10.048556 -21.851851
v -35.359986 10.048556 -21.851851
v -31.432320 10.048556 -21.851851
v -27.504652 10.048556 -21.851851
v -23.576983 7.299289 -22.514384
v -19.649318 7.299289 -22.514384
vt 0.000000 0.000000
vt 0.100000 0.000000
vt 0.200000 0.000000
vt 0.300000 0.000000
vt 0.400000 0.000000
vt 0.500000 0.000000
vt 0.600000 0.000000
vt 0.700000 0.000000
vt 0.800000 0.000000
vt 0.900000 0.000000
vt 1.000000 0.000000
vt 0.000000 0.100000
vt 0.100000 0.100000
vt 0.200000 0.100000
vt 0.300000 0.100000
vt 0.400000 0.100000
vt 0.500000 0.100000
vt 0.600000 0.100000
vt 0.700000 0.100000
vt 0.800000 0.100000
vt 0.900000 0.100000
vt 1.000000 0.100000
vt 0.000000 0.200000
vt 0.100000 0.200000
vt 0.200000 0.200000
vt 0.300000 0.200000
vt 0.400000 0.200000
vt 0.500000 0.200000
vt 0.600000 0.200000
vt 0.700000 0.200000
vt 0.800000 0.200000
vt 0.900000 0.200000
vt 1.000000 0.200000
vt 0.000000 0.300000
vt 0.100000 0.300000
vt 0.200000 0.300000
vt 0.300000 0.300000
vt 0.400000 0.300000
vt 0.500000 0.300000
vt 0.600000 0.300000
vt 0.700000 0.300000
vt 0.800000 0.300000
vt 0.900000 0.300000
vt 1.000000 0.300000
vt 0.000000 0.400000
vt 0.100000 0.400000
vt 0.200000 0.400000
vt 0.300000 0.400000
vt 0.400000 0.400000
vt 0.500000 0.400000
vt 0.600000 0.400000
vt 0.700000 0.400000
vt 0.800000 0.400000
vt 0.900000 0.400000
vt 1.000000 0.400000
vt 0.000000 0.500000
vt 0.100000 0.500000
vt 0.200000 0.500000
vt 0.300000 0.500000
vt 0.400000 0.500000
vt 0.500000 0.500000
vt 0.600000 0.500000
vt 0.700000 0.500000
vt 0.800000 0.500000
vt 0.900000 0.500000
vt 1.000000 0.500000
vt 0.000000 0.600000
vt 0.100000 0.600000
vt 0.200000 0.600000
vt 0.300000 0.600000
vt 0.400000 0.600000
vt 0.500000 0.600000
vt 0.600000 0.600000
vt 0.700000 0.600000
vt 0.800000 0.600000
vt 0.900000 0.600000
vt 1.000000 0.600000
vt 0.000000 0.700000
vt 0.100000 0.700000
vt 0.200000 0.700000
vt 0.300000 0.700000
vt 0.400000 0.700000
vt 0.500000 0.700000
vt 0.600000 0.700000
vt 0.700000 0.700000
vt 0.800000 0.700000
vt 0.900000 0.700000
vt 1.000000 0.700000
vt 0.000000 0.800000
vt 0.100000 0.800000
vt 0.200000 0.800000
vt 0.300000 0.800000
vt 0.400000 0.800000
vt 0.500000 0.800000
vt 0.600000 0.800000
vt 0.700000 0.800000
vt 0.800000 0.800000
vt 0.900000 0.800000
vt 1.000000 0.800000
vt 0.000000 0.900000
vt 0.100000 0.900000
vt 0.200000 0.900000
vt 0.300000 0.900000
vt 0.400000 0.900000
vt 0.500000 0.900000
vt 0.600000 0.900000
vt 0.700000 0.900000
vt 0.800000 0.900000
vt 0.900000 0.900000
vt 1.000000 0.900000
vt 0.000000 1.000000
vt 0.100000 1.000000
vt 0.200000 1.000000
vt 0.300000 1.000000
vt 0.400000 1.000000
vt 0.500000 1.000000
vt 0.600000 1.000000
vt 0.700000 1.000000
vt 0.800000 1.000000
vt 0.900000 1.000000
vt 1.000000 1.000000
vn 0.000000 1.000000 0.000000
vn 0.000000 1.000000 0.000000
vn 0.000000 1.000000 0.000000
vn 0.000000 1.000000 0.000000
vn 0.000000 1.000000 0.000000
vn 0.000000 1.000000 0.000000
vn 0.000000 1.000000 0.000000
vn 0.000000 1.000000 0.000000
vn 0.000000 1.000000 0.000000
vn 0.000000 1.000000 0.000000
vn 0.000000 1.000000 0.000000
vn 0.000000 1.000000 0.000000
vn 0.000000 1.000000 0.000000
vn 0.000000 1.000000 0.000000
vn 0.000000 1.000000 0.000000
vn 0.000000 1.000000 0.000000
vn -0.355682 0.934607 0.000000
vn -0.355682 0.934607 0.000000
vn -0.355682 0.934607 0.000000
vn -0.355682 0.934607 0.000000
vn 0.000000 1.000000 0.000000
vn 0.000000 1.000000 0.000000
vn 0.074141 0.956063 0.283633
vn 0.000000 0.915908 0.401387
vn 0.076557 0.987221 0.139763
vn -0.000000 1.000000 -0.000000
vn 0.000000 1.000000 0.000000
vn 0.000000 1.000000 0.000000
vn -0.063873 0.995912 0.063873
vn -0.088465 0.972980 0.213269
vn -0.289924 0.930890 0.222236
vn -0.277157 0.956878 0.087001
vn 0.000000 1.000000 0.000000
vn 0.265177 0.895683 0.356979
vn 0.085677 0.835642 0.542551
vn 0.240711 0.955803 0.168815
vn -0.000000 1.000000 -0.000000
vn 0.000000 1.000000 0.000000
vn 0.000000 1.000000 0.000000
vn -0.188566 0.980047 0.062855
vn -0.255427 0.943419 0.211466
vn -0.178340 0.957964 0.224721
vn -0.140602 0.983282 0.115705
vn -0.078381 0.995019 0.061585
vn 0.416511 0.901315 0.118956
vn 0.295020 0.937571 0.184182
vn 0.342482 0.937566 0.060628
vn 0.014770 0.999782 0.014770
vn 0.000000 1.000000 0.000000
vn 0.000000 1.000000 0.000000
vn -0.248493 0.968634 0.000000
vn -0.341786 0.939778 0.000000
vn -0.110683 0.993847 -0.004194
vn -0.121377 0.992256 0.026364
vn -0.231521 0.971069 0.058502
vn 0.455182 0.890398 -0.000000
vn 0.379440 0.925216 0.000000
vn 0.364955 0.931025 0.000000
vn 0.029534 0.999564 0.000000
vn 0.000000 1.000000 0.000000
vn 0.000000 1.000000 0.000000
vn -0.248493 0.968634 0.000000
vn -0.341786 0.939778 0.000000
vn -0.106539 0.994309 0.000000
vn -0.155628 0.987816 0.000000
vn -0.300529 0.953773 0.000000
vn 0.423590 0.903176 0.069601
vn 0.379440 0.925216 0.000000
vn 0.305460 0.939099 0.157438
vn 0.086977 0.975246 0.203299
vn 0.074002 0.994509 0.074002
vn 0.000000 1.000000 0.000000
vn -0.248493 0.968634 0.000000
vn -0.341786 0.939778 0.000000
vn -0.106539 0.994309 0.000000
vn -0.155628 0.987816 0.000000
vn -0.300529 0.953773 0.000000
vn 0.346889 0.919921 0.182795
vn 0.292589 0.951252 0.097529
vn 0.252215 0.934560 0.250969
vn 0.210033 0.954868 0.210033
vn 0.217298 0.973414 0.072433
vn 0.000000 1.000000 0.000000
vn -0.326094 0.941549 0.084549
vn -0.401939 0.890288 0.214086
vn -0.063717 0.963682 0.259340
vn -0.092486 0.983403 0.156095
vn -0.212797 0.972597 0.093663
vn 0.302696 0.948468 0.093724
vn 0.101467 0.989651 0.101466
vn 0.273677 0.959718 0.063574
vn 0.180980 0.977325 0.109915
vn 0.175275 0.934711 0.309182
vn 0.000000 0.911969 0.410260
vn -0.359326 0.843781 0.398646
vn -0.404738 0.791471 0.457996
vn 0.044372 0.893966 0.445933
vn 0.093581 0.954084 0.284546
vn 0.045341 0.985082 0.166004
vn 0.198134 0.903084 0.381027
vn 0.000000 0.957178 0.289498
vn 0.188703 0.877279 0.441330
vn -0.017180 0.830173 0.557241
vn -0.075419 0.765144 0.639427
vn -0.047798 0.721608 0.690650
vn -0.266414 0.724411 0.635808
vn -0.255531 0.813124 0.523004
vn 0.208539 0.891179 0.402878
vn 0.280107 0.908724 0.309452
vn 0.182792 0.946554 0.265749
vn 0.134653 0.837784 0.529138
vn 0.000000 0.905193 0.425001
vn 0.123981 0.771388 0.624170
vn -0.059839 0.730228 0.680578
vn -0.134452 0.732855 0.666967
vn -0.076540 0.707970 0.702083
vn -0.156520 0.725808 0.669853
vn -0.178156 0.826137 0.534563
vn 0.244333 0.885637 0.394904
vn 0.325085 0.885857 0.331024
vn 0.166134 0.925602 0.340088
s 1
usemtl initialShadingGroup
f 1/1/1 2/2/2 13/13/3 12/12/4
f 2/2/2 3/3/5 14/14/6 13/13/3
f 3/3/5 4/4/7 15/15/8 14/14/6
f 4/4/7 5/5/9 16/16/10 15/15/8
f 5/5/9 6/6/11 17/17/12 16/16/10
f 6/6/11 7/7/13 18/18/14 17/17/12
f 7/7/13 8/8/15 19/19/16 18/18/14
f 8/8/15 9/9/17 20/20/18 19/19/16
f 9/9/17 10/10/19 21/21/20 20/20/18
f 10/10/19 11/11/21 22/22/22 21/21/20
f 12/12/4 13/13/3 24/24/23 23/23/24
f 13/13/3 14/14/6 25/25/25 24/24/23
f 14/14/6 15/15/8 26/26/26 25/25/25
f 15/15/8 16/16/10 27/27/27 26/26/26
f 16/16/10 17/17/12 28/28/28 27/27/27
f 17/17/12 18/18/14 29/29/29 28/28/28
f 18/18/14 19/19/16 30/30/30 29/29/29
f 19/19/16 20/20/18 31/31/31 30/30/30
f 20/20/18 21/21/20 32/32/32 31/31/31
f 21/21/20 22/22/22 33/33/33 32/32/32
f 23/23/24 24/24/23 35/35/34 34/34/35
f 24/24/23 25/25/25 36/36/36 35/35/34
f 25/25/25 26/26/26 37/37/37 36/36/36
f 26/26/26 27/27/27 38/38/38 37/37/37
f 27/27/27 28/28/28 39/39/39 38/38/38
f 28/28/28 29/29/29 40/40/40 39/39/39
f 29/29/29 30/30/30 41/41/41 40/40/40
f 30/30/30 31/31/31 42/42/42 41/41/41
f 31/31/31 32/32/32 43/43/43 42/42/42
f 32/32/32 33/33/33 44/44/44 43/43/43
f 34/34/35 35/35/34 46/46/45 45/45/46
f 35/35/34 36/36/36 47/47/47 46/46/45
f 36/36/36 37/37/37 48/48/48 47/47/47
f 37/37/37 38/38/38 49/49/49 48/48/48
f 38/38/38 39/39/39 50/50/50 49/49/49
f 39/39/39 40/40/40 51/51/51 50/50/50
f 40/40/40 41/41/41 52/52/52 51/51/51
f 41/41/41 42/42/42 53/53/53 52/52/52
f 42/42/42 43/43/43 54/54/54 53/53/53
f 43/43/43 44/44/44 55/55/55 54/54/54
f 45/45/46 46/46/45 57/57/56 56/56/57
f 46/46/45 47/47/47 58/58/58 57/57/56
f 47/47/47 48/48/48 59/59/59 58/58/58
f 48/48/48 49/49/49 60/60/60 59/59/59
f 49/49/49 50/50/50 61/61/61 60/60/60
f 50/50/50 51/51/51 62/62/62 61/61/61
f 51/51/51 52/52/52 63/63/63 62/62/62
f 52/52/52 53/53/53 64/64/64 63/63/63
f 53/53/53 54/54/54 65/65/65 64/64/64
f 54/54/54 55/55/55 66/66/66 65/65/65
f 56/56/57 57/57/56 68/68/67 67/67/68
f 57/57/56 58/58/58 69/69/69 68/68/67
f 58/58/58 59/59/59 70/70/70 69/69/69
f 59/59/59 60/60/60 71/71/71 70/70/70
f 60/60/60 61/61/61 72/72/72 71/71/71
f 61/61/61 62/62/62 73/73/73 72/72/72
f 62/62/62 63/63/63 74/74/74 73/73/73
f 63/63/63 64/64/64 75/75/75 74/74/74
f 64/64/64 65/65/65 76/76/76 75/75/75
f 65/65/65 66/66/66 77/77/77 76/76/76
f 67/67/68 68/68/67 79/79/78 78/78/79
f 68/68/67 69/69/69 80/80/80 79/79/78
f 69/69/69 70/70/70 81/81/81 80/80/80
f 70/70/70 71/71/71 82/82/82 81/81/81
f 71/71/71 72/72/72 83/83/83 82/82/82
f 72/72/72 73/73/73 84/84/84 83/83/83
f 73/73/73 74/74/74 85/85/85 84/84/84
f 74/74/74 75/75/75 86/86/86 85/85/85
f 75/75/75 76/76/76 87/87/87 86/86/86
f 76/76/76 77/77/77 88/88/88 87/87/87
f 78/78/79 79/79/78 90/90/89 89/89/90
f 79/79/78 80/80/80 91/91/91 90/90/89
f 80/80/80 81/81/81 92/92/92 91/91/91
f 81/81/81 82/82/82 93/93/93 92/92/92
f 82/82/82 83/83/83 94/94/94 93/93/93
f 83/83/83 84/84/84 95/95/95 94/94/94
f 84/84/84 85/85/85 96/96/96 95/95/95
f 85/85/85 86/86/86 97/97/97 96/96/96
f 86/86/86 87/87/87 98/98/98 97/97/97
f 87/87/87 88/88/88 99/99/99 98/98/98
f 89/89/90 90/90/89 101/101/100 100/100/101
f 90/90/89 91/91/91 102/102/102 101/101/100
f 91/91/91 92/92/92 103/103/103 102/102/102
f 92/92/92 93/93/93 104/104/104 103/103/103
f 93/93/93 94/94/94 105/105/105 104/104/104
f 94/94/94 95/95/95 106/106/106 105/105/105
f 95/95/95 96/96/96 107/107/107 106/106/106
f 96/96/96 97/97/97 108/108/108 107/107/107
f 97/97/97 98/98/98 109/109/109 108/108/108
f 98/98/98 99/99/99 110/110/110 109/109/109
f 100/100/101 101/101/100 112/112/111 111/111/112
f 101/101/100 102/102/102 113/113/113 112/112/111
f 102/102/102 103/103/103 114/114/114 113/113/113
f 103/103/103 104/104/104 115/115/115 114/114/114
f 104/104/104 105/105/105 116/116/116 115/115/115
f 105/105/105 106/106/106 117/117/117 116/116/116
f 106/106/106 107/107/107 118/118/118 117/117/117
f 107/107/107 108/108/108 119/119/119 118/118/118
f 108/108/108 109/109/109 120/120/120 119/119/119
f 109/109/109 110/110/110 121/121/121 120/120/120
