# This file uses centimeters as units for non-parametric coordinates.

mtllib LampMesh.mtl
v 0.079256 0.091347 -0.028082
v 0.050924 0.091347 -0.048665
v 0.015908 0.091347 -0.048665
v -0.012423 0.091347 -0.028082
v -0.023244 0.091347 0.005221
v -0.012423 0.091347 0.038526
v 0.015908 0.091347 0.059108
v 0.050924 0.091347 0.059108
v 0.079256 0.091347 0.038525
v 0.090075 0.091347 0.005221
v 0.079256 3.988768 -0.028082
v 0.050924 3.988768 -0.048665
v 0.015908 3.988768 -0.048665
v -0.012423 3.988768 -0.028082
v -0.023244 3.988768 0.005221
v -0.012423 3.988768 0.038525
v 0.015908 3.988768 0.059108
v 0.050924 3.988768 0.059108
v 0.079256 3.988768 0.038525
v 0.090075 3.988768 0.005221
v 0.225584 0.050791 0.005221
v 0.188885 0.050791 -0.107733
v 0.188885 0.050791 0.118175
v 0.092799 0.050791 0.187985
v -0.025964 0.050791 0.187985
v -0.122051 0.050791 0.118175
v -0.158752 0.050791 0.005221
v -0.122051 0.050791 -0.107733
v -0.025964 0.050791 -0.177542
v 0.092799 0.050791 -0.177542
v 0.225584 -0.001762 0.005221
v 0.188885 -0.001762 -0.107733
v 0.188885 -0.001762 0.118175
v 0.092799 -0.001762 0.187985
v -0.025964 -0.001762 0.187985
v -0.122051 -0.001762 0.118175
v -0.158752 -0.001762 0.005221
v -0.122051 -0.001762 -0.107733
v -0.025964 -0.001762 -0.177542
v 0.092799 -0.001762 -0.177542
v 0.079256 4.220747 -0.028082
v 0.050924 4.220747 -0.048665
v 0.015908 4.220747 -0.048665
v -0.012423 4.220747 -0.028082
v -0.023244 4.220747 0.005221
v -0.012423 4.220747 0.038525
v 0.015908 4.220747 0.059108
v 0.050924 4.220747 0.059108
v 0.079256 4.220747 0.038525
v 0.090075 4.220747 0.005221
v 0.470534 3.478933 -0.312355
v 0.200376 3.478933 -0.508623
v 0.067200 4.144857 -0.098755
v 0.121867 4.144857 -0.059040
v -0.133526 3.478933 -0.508623
v -0.000365 4.144857 -0.098755
v -0.403679 3.478933 -0.312355
v -0.055031 4.144857 -0.059040
v -0.506871 3.478933 0.005220
v -0.075912 4.144857 0.005221
v -0.403679 3.478933 0.322794
v -0.055031 4.144857 0.069483
v -0.133526 3.478933 0.519066
v -0.000365 4.144857 0.109199
v 0.200376 3.478933 0.519066
v 0.067200 4.144857 0.109199
v 0.470534 3.478933 0.322794
v 0.121867 4.144857 0.069483
v 0.573702 3.478933 0.005220
v 0.142743 4.144857 0.005221
vt 0.011321 0.559645
vt 0.026612 0.559645
vt 0.026612 0.613668
vt 0.011321 0.613668
vt 0.041903 0.559645
vt 0.041903 0.613668
vt 0.001870 0.559645
vt 0.001870 0.613668
vt 0.051353 0.559645
vt 0.051353 0.613668
vt 0.046261 0.501874
vt 0.061552 0.501874
vt 0.061552 0.555897
vt 0.046261 0.555897
vt 0.076844 0.501874
vt 0.076844 0.555897
vt 0.036811 0.501874
vt 0.036811 0.555897
vt 0.086294 0.501874
vt 0.086294 0.555897
vt 0.112250 0.533926
vt 0.112250 0.585788
vt 0.111521 0.585788
vt 0.111521 0.533926
vt 0.112250 0.637650
vt 0.111521 0.637650
vt 0.112250 0.501874
vt 0.111521 0.501874
vt 0.112250 0.669702
vt 0.111521 0.669702
vt 0.105761 0.533926
vt 0.105761 0.585788
vt 0.105032 0.585788
vt 0.105032 0.533926
vt 0.105761 0.637650
vt 0.105032 0.637650
vt 0.105761 0.501874
vt 0.105032 0.501874
vt 0.105761 0.669702
vt 0.105032 0.669702
vt 0.323651 0.518724
vt 0.375513 0.501874
vt 0.427375 0.518724
vt 0.459427 0.562841
vt 0.459427 0.617370
vt 0.427375 0.661487
vt 0.375513 0.678338
vt 0.323651 0.661487
vt 0.291599 0.617370
vt 0.291599 0.562841
vt 0.253088 0.229012
vt 0.262538 0.242020
vt 0.262538 0.258097
vt 0.253088 0.271105
vt 0.237797 0.276074
vt 0.222506 0.271105
vt 0.213055 0.258097
vt 0.213055 0.242020
vt 0.222506 0.229012
vt 0.237797 0.224044
vt 0.267302 0.209448
vt 0.285537 0.234547
vt 0.285537 0.265569
vt 0.267302 0.290668
vt 0.237797 0.300256
vt 0.208292 0.290668
vt 0.190057 0.265569
vt 0.190057 0.234547
vt 0.208292 0.209448
vt 0.237797 0.199862
vt 0.383609 0.049360
vt 0.473723 0.173401
vt 0.473723 0.326708
vt 0.383609 0.450747
vt 0.237798 0.498126
vt 0.091987 0.450747
vt 0.001870 0.326708
vt 0.001870 0.173401
vt 0.091987 0.049360
vt 0.237798 0.001992
vt 0.217215 0.569059
vt 0.201924 0.564091
vt 0.201924 0.501874
vt 0.253786 0.518724
vt 0.186633 0.569059
vt 0.150063 0.518724
vt 0.226666 0.582067
vt 0.285838 0.562841
vt 0.177183 0.582067
vt 0.118010 0.562841
vt 0.226666 0.598144
vt 0.285838 0.617370
vt 0.177183 0.598144
vt 0.118010 0.617370
vt 0.217215 0.611152
vt 0.253786 0.661487
vt 0.186633 0.611152
vt 0.150063 0.661487
vt 0.201924 0.616120
vt 0.201924 0.678338
vt 0.685823 0.728894
vt 0.676372 0.741902
vt 0.465188 0.673282
vt 0.555302 0.549242
vt 0.676372 0.757979
vt 0.465188 0.826590
vt 0.701114 0.723926
vt 0.701113 0.501874
vt 0.685823 0.770987
vt 0.555302 0.950628
vt 0.716405 0.728894
vt 0.846924 0.549242
vt 0.701114 0.775956
vt 0.701113 0.998008
vt 0.725855 0.741902
vt 0.937040 0.673282
vt 0.716405 0.770987
vt 0.846924 0.950628
vt 0.725855 0.757979
vt 0.937040 0.826590
vt 0.031050 0.555897
vt 0.014973 0.555897
vt 0.014973 0.501874
vt 0.031050 0.501874
vt 0.058780 0.559645
vt 0.074857 0.559645
vt 0.074857 0.613668
vt 0.058780 0.613668
vt 0.099272 0.501874
vt 0.099272 0.556403
vt 0.098543 0.556403
vt 0.098543 0.501874
vt 0.092054 0.556403
vt 0.092054 0.501874
vt 0.092783 0.501874
vt 0.092783 0.556403
vn 0.587762 0.000000 -0.809034
vn 0.587762 0.000000 -0.809034
vn 0.587762 0.000000 -0.809034
vn 0.587762 0.000000 -0.809034
vn 0.000000 0.000000 -1.000000
vn 0.000000 0.000000 -1.000000
vn 0.000000 0.000000 -1.000000
vn 0.000000 0.000000 -1.000000
vn -0.587768 0.000000 -0.809030
vn -0.587768 0.000000 -0.809030
vn -0.587768 0.000000 -0.809030
vn -0.587768 0.000000 -0.809030
vn -0.951055 -0.000000 -0.309023
vn -0.951055 -0.000000 -0.309023
vn -0.951055 -0.000000 -0.309023
vn -0.951055 -0.000000 -0.309023
vn -0.951055 -0.000000 0.309021
vn -0.951055 -0.000000 0.309021
vn -0.951055 -0.000000 0.309021
vn -0.951055 -0.000000 0.309021
vn -0.587772 0.000000 0.809027
vn -0.587772 0.000000 0.809027
vn -0.587772 0.000000 0.809027
vn -0.587772 0.000000 0.809027
vn 0.000000 0.000000 1.000000
vn 0.000000 0.000000 1.000000
vn 0.000000 0.000000 1.000000
vn 0.000000 0.000000 1.000000
vn 0.587770 0.000000 0.809028
vn 0.587770 0.000000 0.809028
vn 0.587770 0.000000 0.809028
vn 0.587770 0.000000 0.809028
vn 0.951073 0.000000 0.308967
vn 0.951073 0.000000 0.308967
vn 0.951073 0.000000 0.308967
vn 0.951073 0.000000 0.308967
vn 0.951073 0.000000 -0.308967
vn 0.951073 0.000000 -0.308967
vn 0.951073 0.000000 -0.308967
vn 0.951073 0.000000 -0.308967
vn 0.000000 -1.000000 -0.000000
vn 0.000000 -1.000000 -0.000000
vn 0.000000 -1.000000 -0.000000
vn 0.000000 -1.000000 -0.000000
vn 0.000000 -1.000000 -0.000000
vn 0.000000 -1.000000 -0.000000
vn 0.000000 -1.000000 -0.000000
vn 0.000000 -1.000000 -0.000000
vn 0.000000 -1.000000 -0.000000
vn 0.000000 -1.000000 -0.000000
vn 0.000000 1.000000 0.000000
vn 0.000000 1.000000 0.000000
vn 0.000000 1.000000 0.000000
vn 0.000000 1.000000 0.000000
vn 0.000000 1.000000 0.000000
vn 0.000000 1.000000 0.000000
vn 0.000000 1.000000 0.000000
vn 0.000000 1.000000 0.000000
vn 0.000000 1.000000 0.000000
vn 0.000000 1.000000 0.000000
vn 0.285487 0.953884 -0.092753
vn 0.285487 0.953884 -0.092753
vn 0.285487 0.953884 -0.092753
vn 0.285487 0.953884 -0.092753
vn 0.285487 0.953884 0.092754
vn 0.285487 0.953884 0.092754
vn 0.285487 0.953884 0.092754
vn 0.285487 0.953884 0.092754
vn 0.176437 0.953884 0.242850
vn 0.176437 0.953884 0.242850
vn 0.176437 0.953884 0.242850
vn 0.176437 0.953884 0.242850
vn 0.000000 0.953884 0.300176
vn 0.000000 0.953884 0.300176
vn 0.000000 0.953884 0.300176
vn 0.000000 0.953884 0.300176
vn -0.176438 0.953883 0.242851
vn -0.176438 0.953883 0.242851
vn -0.176438 0.953883 0.242851
vn -0.176438 0.953883 0.242851
vn -0.285486 0.953883 0.092762
vn -0.285486 0.953883 0.092762
vn -0.285486 0.953883 0.092762
vn -0.285486 0.953883 0.092762
vn -0.285486 0.953883 -0.092760
vn -0.285486 0.953883 -0.092760
vn -0.285486 0.953883 -0.092760
vn -0.285486 0.953883 -0.092760
vn -0.176437 0.953884 -0.242851
vn -0.176437 0.953884 -0.242851
vn -0.176437 0.953884 -0.242851
vn -0.176437 0.953884 -0.242851
vn 0.000000 0.953884 -0.300176
vn 0.000000 0.953884 -0.300176
vn 0.000000 0.953884 -0.300176
vn 0.000000 0.953884 -0.300176
vn 0.176436 0.953884 -0.242849
vn 0.176436 0.953884 -0.242849
vn 0.176436 0.953884 -0.242849
vn 0.176436 0.953884 -0.242849
vn 0.951063 0.000000 -0.308997
vn 0.951063 0.000000 -0.308997
vn 0.951063 0.000000 -0.308997
vn 0.951063 0.000000 -0.308997
vn 0.951063 0.000000 0.308998
vn 0.951063 0.000000 0.308998
vn 0.951063 0.000000 0.308998
vn 0.951063 0.000000 0.308998
vn 0.587779 0.000000 0.809021
vn 0.587779 0.000000 0.809021
vn 0.587779 0.000000 0.809021
vn 0.587779 0.000000 0.809021
vn 0.000000 0.000000 1.000000
vn 0.000000 0.000000 1.000000
vn 0.000000 0.000000 1.000000
vn 0.000000 0.000000 1.000000
vn -0.587776 0.000000 0.809023
vn -0.587776 0.000000 0.809023
vn -0.587776 0.000000 0.809023
vn -0.587776 0.000000 0.809023
vn -0.951056 0.000000 0.309018
vn -0.951056 0.000000 0.309018
vn -0.951056 0.000000 0.309018
vn -0.951056 0.000000 0.309018
vn -0.951056 0.000000 -0.309017
vn -0.951056 0.000000 -0.309017
vn -0.951056 0.000000 -0.309017
vn -0.951056 0.000000 -0.309017
vn -0.587774 0.000000 -0.809025
vn -0.587774 0.000000 -0.809025
vn -0.587774 0.000000 -0.809025
vn -0.587774 0.000000 -0.809025
vn 0.000000 0.000000 -1.000000
vn 0.000000 0.000000 -1.000000
vn 0.000000 0.000000 -1.000000
vn 0.000000 0.000000 -1.000000
vn 0.587777 0.000000 -0.809023
vn 0.587777 0.000000 -0.809023
vn 0.587777 0.000000 -0.809023
vn 0.587777 0.000000 -0.809023
vn 0.500546 0.524166 -0.688987
vn 0.500546 0.524166 -0.688987
vn 0.500546 0.524166 -0.688987
vn 0.500546 0.524166 -0.688987
vn 0.000000 0.524161 -0.851619
vn 0.000000 0.524161 -0.851619
vn 0.000000 0.524161 -0.851619
vn 0.000000 0.524161 -0.851619
vn -0.500555 0.524157 -0.688988
vn -0.500555 0.524157 -0.688988
vn -0.500555 0.524157 -0.688988
vn -0.500555 0.524157 -0.688988
vn -0.809935 0.524159 -0.263179
vn -0.809935 0.524159 -0.263179
vn -0.809935 0.524159 -0.263179
vn -0.809935 0.524159 -0.263179
vn -0.809936 0.524157 0.263179
vn -0.809936 0.524157 0.263179
vn -0.809935 0.524158 0.263179
vn -0.809936 0.524158 0.263179
vn -0.500562 0.524155 0.688984
vn -0.500562 0.524155 0.688984
vn -0.500562 0.524155 0.688984
vn -0.500562 0.524155 0.688984
vn 0.000000 0.524161 0.851619
vn 0.000000 0.524161 0.851619
vn 0.000000 0.524161 0.851619
vn 0.000000 0.524161 0.851619
vn 0.500553 0.524165 0.688983
vn 0.500553 0.524165 0.688983
vn 0.500553 0.524165 0.688983
vn 0.500553 0.524165 0.688983
vn 0.809949 0.524166 0.263122
vn 0.809949 0.524166 0.263122
vn 0.809949 0.524166 0.263122
vn 0.809949 0.524166 0.263122
vn 0.809948 0.524167 -0.263122
vn 0.809948 0.524167 -0.263122
vn 0.809948 0.524167 -0.263122
vn 0.809948 0.524167 -0.263122
vn -0.436405 -0.669860 0.600699
vn -0.436405 -0.669860 0.600699
vn -0.436405 -0.669860 0.600699
vn -0.436405 -0.669860 0.600699
vn 0.490545 0.550865 -0.675214
vn 0.490545 0.550865 -0.675214
vn 0.490545 0.550865 -0.675214
vn 0.490545 0.550865 -0.675214
vn 0.000000 -0.669855 0.742492
vn 0.000000 -0.669855 0.742492
vn 0.000000 -0.669855 0.742492
vn 0.000000 -0.669855 0.742492
vn 0.000000 0.550860 -0.834597
vn 0.000000 0.550860 -0.834597
vn 0.000000 0.550860 -0.834597
vn 0.000000 0.550860 -0.834597
vn 0.436414 -0.669850 0.600703
vn 0.436414 -0.669850 0.600703
vn 0.436414 -0.669850 0.600703
vn 0.436414 -0.669850 0.600703
vn -0.490553 0.550855 -0.675216
vn -0.490553 0.550855 -0.675216
vn -0.490553 0.550855 -0.675216
vn -0.490553 0.550855 -0.675216
vn 0.706150 -0.669852 0.229455
vn 0.706150 -0.669852 0.229455
vn 0.706150 -0.669852 0.229455
vn 0.706150 -0.669852 0.229455
vn -0.793747 0.550857 -0.257919
vn -0.793747 0.550857 -0.257919
vn -0.793747 0.550857 -0.257919
vn -0.793747 0.550857 -0.257919
vn 0.706151 -0.669851 -0.229455
vn 0.706151 -0.669851 -0.229455
vn 0.706151 -0.669851 -0.229455
vn 0.706151 -0.669851 -0.229455
vn -0.793747 0.550857 0.257919
vn -0.793747 0.550857 0.257919
vn -0.793747 0.550857 0.257919
vn -0.793747 0.550857 0.257919
vn 0.436421 -0.669849 -0.600699
vn 0.436421 -0.669849 -0.600699
vn 0.436421 -0.669849 -0.600699
vn 0.436421 -0.669849 -0.600699
vn -0.490558 0.550855 0.675213
vn -0.490558 0.550855 0.675213
vn -0.490558 0.550855 0.675213
vn -0.490558 0.550855 0.675213
vn 0.000000 -0.669855 -0.742492
vn 0.000000 -0.669855 -0.742492
vn 0.000000 -0.669855 -0.742492
vn 0.000000 -0.669855 -0.742492
vn 0.000000 0.550860 0.834598
vn 0.000000 0.550860 0.834598
vn 0.000000 0.550860 0.834598
vn 0.000000 0.550860 0.834598
vn -0.436412 -0.669858 -0.600695
vn -0.436412 -0.669859 -0.600695
vn -0.436412 -0.669859 -0.600695
vn -0.436412 -0.669859 -0.600695
vn 0.490549 0.550864 0.675211
vn 0.490549 0.550864 0.675211
vn 0.490549 0.550864 0.675211
vn 0.490549 0.550864 0.675211
vn -0.706160 -0.669860 -0.229405
vn -0.706160 -0.669860 -0.229405
vn -0.706160 -0.669860 -0.229405
vn -0.706160 -0.669860 -0.229405
vn 0.793759 0.550866 0.257863
vn 0.793759 0.550866 0.257863
vn 0.793759 0.550866 0.257863
vn 0.793759 0.550866 0.257863
vn -0.706159 -0.669860 0.229404
vn -0.706159 -0.669861 0.229404
vn -0.706159 -0.669860 0.229404
vn -0.706159 -0.669861 0.229404
vn 0.793759 0.550866 -0.257862
vn 0.793759 0.550866 -0.257862
vn 0.793759 0.550866 -0.257862
vn 0.793759 0.550866 -0.257862
s off
usemtl initialShadingGroup
f 1/15/1 2/19/2 12/20/3 11/16/4
f 2/121/5 3/122/6 13/123/7 12/124/8
f 3/7/9 4/1/10 14/4/11 13/8/12
f 4/1/13 5/2/14 15/3/15 14/4/16
f 5/2/17 6/5/18 16/6/19 15/3/20
f 6/5/21 7/9/22 17/10/23 16/6/24
f 7/125/25 8/126/26 18/127/27 17/128/28
f 8/17/29 9/11/30 19/14/31 18/18/32
f 9/11/33 10/12/34 20/13/35 19/14/36
f 10/12/37 1/15/38 11/16/39 20/13/40
f 32/41/41 31/42/42 33/43/43 34/44/44 35/45/45 36/46/46 37/47/47 38/48/48 39/49/49 40/50/50
f 41/51/51 42/52/52 43/53/53 44/54/54 45/55/55 46/56/56 47/57/57 48/58/58 49/59/59 50/60/60
f 1/81/61 10/82/62 21/83/63 22/84/64
f 10/82/65 9/85/66 23/86/67 21/83/68
f 9/85/69 8/89/70 24/90/71 23/86/72
f 8/89/73 7/93/74 25/94/75 24/90/76
f 7/93/77 6/97/78 26/98/79 25/94/80
f 6/97/81 5/99/82 27/100/83 26/98/84
f 5/99/85 4/95/86 28/96/87 27/100/88
f 4/95/89 3/91/90 29/92/91 28/96/92
f 3/91/93 2/87/94 30/88/95 29/92/96
f 2/87/97 1/81/98 22/84/99 30/88/100
f 22/21/101 21/22/102 31/23/103 32/24/104
f 21/22/105 23/25/106 33/26/107 31/23/108
f 23/25/109 24/29/110 34/30/111 33/26/112
f 24/129/113 25/130/114 35/131/115 34/132/116
f 25/37/117 26/31/118 36/34/119 35/38/120
f 26/31/121 27/32/122 37/33/123 36/34/124
f 27/32/125 28/35/126 38/36/127 37/33/128
f 28/35/129 29/39/130 39/40/131 38/36/132
f 29/133/133 30/134/134 40/135/135 39/136/136
f 30/27/137 22/21/138 32/24/139 40/28/140
f 51/71/141 52/72/142 53/62/143 54/61/144
f 52/72/145 55/73/146 56/63/147 53/62/148
f 55/73/149 57/74/150 58/64/151 56/63/152
f 57/74/153 59/75/154 60/65/155 58/64/156
f 59/75/157 61/76/158 62/66/159 60/65/160
f 61/76/161 63/77/162 64/67/163 62/66/164
f 63/77/165 65/78/166 66/68/167 64/67/168
f 65/78/169 67/79/170 68/69/171 66/68/172
f 67/79/173 69/80/174 70/70/175 68/69/176
f 69/80/177 51/71/178 54/61/179 70/70/180
f 11/101/181 12/102/182 52/103/183 51/104/184
f 42/52/185 41/51/186 54/61/187 53/62/188
f 12/102/189 13/105/190 55/106/191 52/103/192
f 43/53/193 42/52/194 53/62/195 56/63/196
f 13/105/197 14/109/198 57/110/199 55/106/200
f 44/54/201 43/53/202 56/63/203 58/64/204
f 14/109/205 15/113/206 59/114/207 57/110/208
f 45/55/209 44/54/210 58/64/211 60/65/212
f 15/113/213 16/117/214 61/118/215 59/114/216
f 46/56/217 45/55/218 60/65/219 62/66/220
f 16/117/221 17/119/222 63/120/223 61/118/224
f 47/57/225 46/56/226 62/66/227 64/67/228
f 17/119/229 18/115/230 65/116/231 63/120/232
f 48/58/233 47/57/234 64/67/235 66/68/236
f 18/115/237 19/111/238 67/112/239 65/116/240
f 49/59/241 48/58/242 66/68/243 68/69/244
f 19/111/245 20/107/246 69/108/247 67/112/248
f 50/60/249 49/59/250 68/69/251 70/70/252
f 20/107/253 11/101/254 51/104/255 69/108/256
f 41/51/257 50/60/258 70/70/259 54/61/260
