# This file uses centimeters as units for non-parametric coordinates.

mtllib MonitorMesh.mtl
v -0.401697 -0.401697 0.500000
v 0.401697 -0.401697 0.500000
v 0.401697 0.401697 0.500000
v -0.401697 0.401697 0.500000
v -0.347049 -0.347049 0.416929
v 0.347049 -0.347049 0.416929
v 0.347049 0.347049 0.416929
v -0.347049 0.347049 0.416929
v -0.450005 -0.450005 0.500000
v 0.450005 -0.450005 0.500000
v -0.450005 0.450005 0.500000
v 0.450005 0.450005 0.500000
v -0.487755 0.500000 -0.114854
v -0.500000 0.487755 -0.114854
v -0.347789 0.337462 -0.456095
v -0.337462 0.347789 -0.456095
v 0.500000 0.487755 -0.114853
v 0.487755 0.500000 -0.114853
v 0.347789 0.337462 -0.456095
v 0.337462 0.347789 -0.456095
v 0.487755 0.500000 0.450005
v 0.495001 0.495001 0.455004
v 0.500000 0.487755 0.450005
v -0.500000 0.487755 0.450005
v -0.495001 0.495001 0.455004
v -0.487755 0.500000 0.450005
v 0.487755 -0.500000 -0.114853
v 0.500000 -0.487755 -0.114853
v 0.347789 -0.337462 -0.456095
v 0.337462 -0.347789 -0.456095
v -0.487755 -0.500000 -0.114854
v -0.500000 -0.487755 -0.114854
v -0.347789 -0.337462 -0.456095
v -0.337462 -0.347789 -0.456095
v 0.500000 -0.487755 0.450005
v 0.495001 -0.495001 0.455004
v 0.487755 -0.500000 0.450005
v -0.500000 -0.487755 0.450005
v -0.487755 -0.500000 0.450005
v -0.495001 -0.495001 0.455004
vt 0.212179 0.339852
vt 0.212179 0.006180
vt 0.328900 0.057588
vt 0.328900 0.288445
vt 0.018970 0.006180
vt 0.018970 0.339852
vt 0.212179 0.001992
vt 0.328900 0.054056
vt 0.212179 0.344040
vt 0.328900 0.291977
vt 0.018970 0.001992
vt 0.018970 0.344040
vt 0.001870 0.019093
vt 0.017260 0.003702
vt 0.017260 0.342331
vt 0.001870 0.326940
vt 0.451675 0.006180
vt 0.451675 0.339852
vt 0.334954 0.288445
vt 0.334954 0.057588
vt 0.644884 0.006180
vt 0.644884 0.339852
vt 0.451675 0.344040
vt 0.334954 0.291977
vt 0.451675 0.001992
vt 0.334954 0.054056
vt 0.644884 0.001992
vt 0.646594 0.003702
vt 0.661985 0.019093
vt 0.661985 0.326940
vt 0.646594 0.342331
vt 0.644884 0.344040
vt 0.487139 0.683937
vt 0.487139 0.350265
vt 0.603860 0.401672
vt 0.603860 0.632529
vt 0.293930 0.683937
vt 0.293930 0.350265
vt 0.292220 0.686415
vt 0.276830 0.671024
vt 0.276829 0.363177
vt 0.292220 0.347787
vt 0.726340 0.350265
vt 0.726340 0.683937
vt 0.609618 0.632529
vt 0.609619 0.401672
vt 0.919549 0.350265
vt 0.919549 0.683937
vt 0.936649 0.671024
vt 0.921259 0.686415
vt 0.921259 0.347787
vt 0.936649 0.363177
vt 0.037086 0.725377
vt 0.274501 0.725377
vt 0.274501 0.962792
vt 0.037086 0.962792
vt 0.018393 0.706685
vt 0.293193 0.706685
vt 0.293193 0.981484
vt 0.018393 0.981484
vt 0.001870 0.690161
vt 0.309717 0.690161
vt 0.309717 0.998008
vt 0.001870 0.998008
vt 0.316663 0.693693
vt 0.320195 0.690161
vt 0.551052 0.690161
vt 0.554584 0.693693
vt 0.554584 0.924550
vt 0.551052 0.928082
vt 0.320195 0.928082
vt 0.316663 0.924550
vn 0.000000 0.000000 1.000000
vn 0.000000 0.000000 1.000000
vn 0.000000 0.000000 1.000000
vn 0.000000 0.000000 1.000000
vn 0.224032 0.224033 0.948482
vn -0.224034 0.224033 0.948482
vn -0.000000 0.835437 0.549586
vn -0.000000 0.835437 0.549586
vn -0.224034 -0.224033 0.948482
vn -0.835439 0.000000 0.549583
vn -0.835439 0.000000 0.549583
vn 0.224033 -0.224033 0.948482
vn -0.000000 -0.835438 0.549584
vn -0.000000 -0.835438 0.549584
vn 0.835437 0.000000 0.549587
vn 0.835437 0.000000 0.549587
vn -0.000000 -0.707109 0.707105
vn -0.000000 -0.707109 0.707105
vn -0.000000 -0.707109 0.707105
vn -0.000000 -0.707109 0.707105
vn -0.000000 -0.707109 0.707105
vn -0.000000 -0.707109 0.707105
vn 0.707110 0.000000 0.707103
vn 0.707110 0.000000 0.707103
vn 0.707110 0.000000 0.707103
vn 0.707110 0.000000 0.707103
vn 0.707110 0.000000 0.707103
vn 0.707110 0.000000 0.707103
vn -0.000000 -0.000000 1.000000
vn -0.000000 -0.000000 1.000000
vn 0.000000 0.000000 1.000000
vn -0.000000 0.000000 1.000000
vn 0.000001 0.000000 -1.000000
vn 0.000001 0.000000 -1.000000
vn 0.000001 0.000000 -1.000000
vn 0.000001 0.000000 -1.000000
vn 0.000001 0.000000 -1.000000
vn 0.000001 0.000000 -1.000000
vn 0.000001 0.000000 -1.000000
vn 0.000001 0.000000 -1.000000
vn -0.000000 0.707109 0.707105
vn -0.000000 0.707109 0.707105
vn -0.000000 0.707109 0.707105
vn -0.000000 0.707109 0.707105
vn -0.000000 0.707109 0.707105
vn -0.000000 0.707109 0.707105
vn -0.690023 0.690027 -0.218475
vn -0.690023 0.690027 -0.218474
vn -0.707105 0.707109 -0.000487
vn -0.707105 0.707109 -0.000487
vn -0.599129 0.599131 -0.531118
vn -0.599128 0.599131 -0.531118
vn 0.690026 0.690025 -0.218473
vn 0.690026 0.690025 -0.218473
vn 0.707106 0.707107 -0.000487
vn 0.707106 0.707107 -0.000487
vn 0.599133 0.599128 -0.531117
vn 0.599133 0.599128 -0.531117
vn 0.000000 0.992355 -0.123419
vn 0.000000 0.992355 -0.123419
vn 0.000000 0.913266 -0.407364
vn 0.000000 0.913266 -0.407364
vn 0.000000 1.000000 0.000000
vn 0.000000 1.000000 0.000000
vn 0.673887 0.673887 -0.302905
vn -0.673892 0.673895 -0.302878
vn -0.707110 -0.000000 0.707103
vn -0.707110 -0.000000 0.707103
vn -0.707110 -0.000000 0.707103
vn -0.707110 -0.000000 0.707103
vn -0.707110 -0.000000 0.707103
vn -0.707110 -0.000000 0.707103
vn 0.690026 -0.690025 -0.218474
vn 0.690026 -0.690025 -0.218474
vn 0.707106 -0.707107 -0.000487
vn 0.707106 -0.707107 -0.000487
vn 0.599132 -0.599128 -0.531118
vn 0.599132 -0.599128 -0.531118
vn -0.690023 -0.690027 -0.218474
vn -0.690023 -0.690027 -0.218474
vn -0.599129 -0.599132 -0.531117
vn -0.599129 -0.599132 -0.531117
vn -0.707105 -0.707109 -0.000487
vn -0.707105 -0.707109 -0.000487
vn 0.000000 -0.992355 -0.123419
vn 0.000000 -0.992355 -0.123419
vn 0.000000 -0.913266 -0.407364
vn 0.000000 -0.913266 -0.407364
vn 0.000000 -1.000000 0.000000
vn 0.000000 -1.000000 0.000000
vn 0.992355 0.000000 -0.123419
vn 0.992355 0.000000 -0.123419
vn 0.913266 0.000000 -0.407364
vn 0.913266 0.000000 -0.407364
vn -0.992355 0.000000 -0.123419
vn -0.992355 0.000000 -0.123419
vn -0.913266 0.000000 -0.407364
vn -0.913266 0.000000 -0.407364
vn 1.000000 0.000000 0.000000
vn 1.000000 0.000000 0.000000
vn -1.000000 0.000000 0.000000
vn -1.000000 0.000000 0.000000
vn 0.673890 -0.673890 -0.302896
vn -0.673889 -0.673904 -0.302866
s off
usemtl initialShadingGroup
f 5/53/1 6/54/2 7/55/3 8/56/4
s 1
f 1/57/5 2/58/6 6/54/7 5/53/8
f 2/58/6 3/59/9 7/55/10 6/54/11
f 3/59/9 4/60/12 8/56/13 7/55/14
f 4/60/12 1/57/5 5/53/15 8/56/16
s off
f 9/49/17 40/50/18 39/48/19 37/47/20 36/51/21 10/52/22
f 10/13/23 36/14/24 35/5/25 23/6/26 22/15/27 12/16/28
s 1
f 9/61/29 10/62/30 2/58/6 1/57/5
f 10/62/30 12/63/31 3/59/9 2/58/6
f 12/63/31 11/64/32 4/60/12 3/59/9
f 11/64/32 9/61/29 1/57/5 4/60/12
s off
f 15/65/33 16/66/34 20/67/35 19/68/36 29/69/37 30/70/38 34/71/39 33/72/40
f 26/37/41 25/39/42 11/40/43 12/41/44 22/42/45 21/38/46
s 5
f 13/23/47 14/18/48 24/22/49 26/32/50
f 14/18/48 13/23/47 16/24/51 15/19/52
s 6
f 17/1/53 18/9/54 21/12/55 23/6/56
f 18/9/54 17/1/53 19/4/57 20/10/58
s 7
f 13/33/59 18/34/60 20/35/61 16/36/62
f 13/33/59 26/37/63 21/38/64 18/34/60
s 6
f 21/12/55 22/15/65 23/6/56
s 5
f 24/22/49 25/31/66 26/32/50
s off
f 38/21/67 40/28/68 9/29/69 11/30/70 25/31/71 24/22/72
s 8
f 27/7/73 28/2/74 35/5/75 37/11/76
f 28/2/74 27/7/73 30/8/77 29/3/78
s 9
f 31/25/79 32/17/80 33/20/81 34/26/82
f 32/17/80 31/25/79 39/27/83 38/21/84
s 10
f 27/43/85 31/44/86 34/45/87 30/46/88
f 31/44/86 27/43/85 37/47/89 39/48/90
s 11
f 17/1/91 28/2/92 29/3/93 19/4/94
s 12
f 32/17/95 14/18/96 15/19/97 33/20/98
s 11
f 35/5/99 28/2/92 17/1/91 23/6/100
s 12
f 32/17/95 38/21/101 24/22/102 14/18/96
s 8
f 35/5/75 36/14/103 37/11/76
s 9
f 38/21/84 39/27/83 40/28/104
