# This file uses centimeters as units for non-parametric coordinates.

mtllib MouseMesh.mtl
v -0.056759 -0.020646 0.105408
v -0.078378 -0.020646 0.066607
v -0.007424 -0.020646 0.105408
v -0.050919 -0.020646 0.105408
v 0.050919 -0.020646 0.105408
v 0.007424 -0.020646 0.105408
v 0.078378 -0.020646 0.066607
v 0.056759 -0.020646 0.105408
v -0.078378 0.020646 0.066607
v -0.056759 0.019959 0.105408
v -0.056759 0.046622 0.066089
v -0.050919 0.046622 0.066089
v -0.050919 0.019959 0.105408
v -0.007424 0.019959 0.105408
v -0.007424 0.046622 0.066089
v 0.007424 0.046622 0.066089
v 0.007424 0.019959 0.105408
v 0.050919 0.019959 0.105408
v 0.050919 0.046622 0.066089
v 0.056759 0.046622 0.066089
v 0.056759 0.019959 0.105408
v 0.078378 0.020646 0.066607
v -0.087515 0.020646 0.041878
v -0.056759 0.054393 0.042395
v -0.056759 0.059446 0.018047
v -0.087515 0.020646 0.018047
v -0.050919 0.059446 0.018047
v -0.050919 0.054393 0.042395
v -0.007424 0.054393 0.042395
v -0.007424 0.059446 0.018047
v 0.007424 0.059446 0.018047
v 0.007424 0.054393 0.042395
v 0.050919 0.054393 0.042395
v 0.050919 0.059446 0.018047
v 0.087514 0.020646 0.018047
v 0.056759 0.059446 0.018047
v 0.056759 0.054393 0.042395
v 0.087514 0.020646 0.041878
v -0.087515 0.020646 -0.018048
v -0.056759 0.059446 -0.018048
v -0.056759 0.053694 -0.073274
v -0.087515 0.020646 -0.072920
v -0.050919 0.053694 -0.073274
v -0.050919 0.059446 -0.018048
v -0.007424 0.059446 -0.018048
v -0.007424 0.057380 -0.073085
v 0.007424 0.057380 -0.073085
v 0.007424 0.059446 -0.018048
v 0.050919 0.059446 -0.018048
v 0.050919 0.053694 -0.073274
v 0.087514 0.020646 -0.072920
v 0.056759 0.053694 -0.073274
v 0.056759 0.059446 -0.018048
v 0.087514 0.020646 -0.018048
v -0.087515 0.020646 -0.097650
v -0.056759 0.047820 -0.097296
v -0.056759 0.020646 -0.136451
v -0.050919 0.020646 -0.136451
v -0.050919 0.047820 -0.097296
v -0.007424 0.055189 -0.097485
v -0.007424 0.022096 -0.136451
v 0.007424 0.022096 -0.136451
v 0.007424 0.055189 -0.097485
v 0.050919 0.047820 -0.097296
v 0.050919 0.020646 -0.136451
v 0.056759 0.020646 -0.136451
v 0.056759 0.047820 -0.097296
v 0.087514 0.020646 -0.097650
v -0.087515 -0.020646 -0.097650
v -0.056759 -0.020646 -0.136451
v -0.050919 -0.020646 -0.136451
v -0.007424 -0.020646 -0.136451
v 0.007424 -0.020646 -0.136451
v 0.050919 -0.020646 -0.136451
v 0.056759 -0.020646 -0.136451
v 0.087514 -0.020646 -0.097650
v -0.087515 -0.020646 -0.072920
v -0.087515 -0.020646 -0.018048
v 0.087514 -0.020646 -0.018048
v 0.087514 -0.020646 -0.072920
v -0.087515 -0.020646 0.018047
v -0.087515 -0.020646 0.041878
v 0.087514 -0.020646 0.041878
v 0.087514 -0.020646 0.018047
v 0.005751 0.008503 -0.136451
v -0.005752 0.008503 -0.136451
v 0.005751 -0.008503 -0.136451
v -0.005752 -0.008503 -0.136451
v 0.005751 0.008503 -0.136451
v -0.005752 0.008503 -0.136451
v 0.005751 -0.008503 -0.136451
v -0.005752 -0.008503 -0.136451
v -0.007424 0.064488 -0.072920
v -0.007424 0.064488 -0.018048
v 0.007424 0.064488 -0.018048
v 0.007424 0.064488 -0.072920
v -0.006052 0.066876 -0.067852
v -0.006052 0.066876 -0.023116
v 0.006052 0.066876 -0.023116
v 0.006052 0.066876 -0.067852
vt 0.539015 0.063179
vt 0.633038 0.063996
vt 0.661167 0.101359
vt 0.539015 0.102176
vt 0.536530 0.001992
vt 0.679458 0.139756
vt 0.539015 0.139756
vt 0.389554 0.102176
vt 0.389554 0.063179
vt 0.389554 0.001992
vt 0.679458 0.196675
vt 0.539015 0.196675
vt 0.389554 0.139756
vt 0.658637 0.283763
vt 0.539015 0.283205
vt 0.389554 0.196675
vt 0.637374 0.321645
vt 0.539015 0.322203
vt 0.389554 0.283205
vt 0.539015 0.383390
vt 0.389554 0.322203
vt 0.389554 0.383390
vt 0.885202 0.706509
vt 0.791178 0.707327
vt 0.791178 0.668329
vt 0.913330 0.669146
vt 0.788693 0.768513
vt 0.641718 0.707327
vt 0.641718 0.668329
vt 0.791178 0.630750
vt 0.931621 0.630750
vt 0.641718 0.768513
vt 0.641718 0.630750
vt 0.791178 0.573831
vt 0.931621 0.573831
vt 0.641718 0.573831
vt 0.791178 0.487300
vt 0.910800 0.486742
vt 0.641718 0.487300
vt 0.791178 0.448302
vt 0.889537 0.448860
vt 0.641718 0.448302
vt 0.791178 0.387116
vt 0.641718 0.387116
vt 0.282215 0.805691
vt 0.289695 0.718900
vt 0.307942 0.718900
vt 0.307942 0.805430
vt 0.316588 0.726892
vt 0.316588 0.797438
vt 0.331540 0.907981
vt 0.324059 0.821190
vt 0.349786 0.821450
vt 0.349786 0.907981
vt 0.358432 0.829443
vt 0.358432 0.899988
vt 0.356883 0.573830
vt 0.356883 0.535434
vt 0.371241 0.535434
vt 0.371241 0.573830
vt 0.356883 0.498071
vt 0.371241 0.498071
vt 0.478183 0.535434
vt 0.478183 0.573830
vt 0.371241 0.630749
vt 0.356883 0.630749
vt 0.356883 0.436066
vt 0.371241 0.436066
vt 0.478183 0.498071
vt 0.514690 0.535434
vt 0.514690 0.573830
vt 0.478183 0.630749
vt 0.356883 0.717838
vt 0.371241 0.717838
vt 0.478183 0.436066
vt 0.514690 0.498071
vt 0.621632 0.535434
vt 0.621632 0.573830
vt 0.514690 0.630749
vt 0.478183 0.717540
vt 0.371241 0.755719
vt 0.356883 0.755719
vt 0.514690 0.436066
vt 0.621632 0.498071
vt 0.635991 0.535434
vt 0.635991 0.573830
vt 0.621632 0.630749
vt 0.478183 0.756017
vt 0.356883 0.817464
vt 0.371241 0.817464
vt 0.621632 0.436066
vt 0.635991 0.498071
vt 0.635991 0.630749
vt 0.514690 0.717540
vt 0.621632 0.717838
vt 0.514690 0.756017
vt 0.635991 0.436066
vt 0.635991 0.717838
vt 0.621632 0.755719
vt 0.635991 0.755719
vt 0.621632 0.817464
vt 0.635991 0.817464
vt 0.369275 0.899728
vt 0.369275 0.829182
vt 0.399038 0.829182
vt 0.399038 0.899728
vt 0.365903 0.821190
vt 0.402410 0.821190
vt 0.402410 0.907720
vt 0.365903 0.907720
vt 0.283073 0.432341
vt 0.245494 0.432341
vt 0.188574 0.432341
vt 0.102044 0.432341
vt 0.063046 0.432341
vt 0.001860 0.356720
vt 0.001860 0.342362
vt 0.001860 0.235420
vt 0.001860 0.198913
vt 0.001860 0.091971
vt 0.001860 0.077612
vt 0.063046 0.001992
vt 0.102044 0.001992
vt 0.188574 0.001992
vt 0.245494 0.001992
vt 0.283073 0.001992
vt 0.322071 0.024456
vt 0.383257 0.077612
vt 0.383257 0.091971
vt 0.383257 0.198913
vt 0.383257 0.235420
vt 0.383257 0.342362
vt 0.383257 0.356720
vt 0.322071 0.409876
vt 0.204180 0.700816
vt 0.204180 0.593874
vt 0.351156 0.593874
vt 0.351156 0.700816
vt 0.204180 0.557367
vt 0.351156 0.557367
vt 0.204180 0.715174
vt 0.351156 0.715174
vt 0.204180 0.450425
vt 0.351156 0.450425
vt 0.204180 0.436066
vt 0.351156 0.436066
vt 0.126893 0.983650
vt 0.121643 0.876707
vt 0.276353 0.876707
vt 0.276353 0.983650
vt 0.028534 0.983650
vt 0.001860 0.876707
vt 0.170845 0.872596
vt 0.232402 0.872596
vt 0.126893 0.998008
vt 0.276353 0.998008
vt 0.001860 0.840201
vt 0.121643 0.840201
vt 0.170845 0.844314
vt 0.276353 0.840201
vt 0.232402 0.844314
vt 0.028534 0.733259
vt 0.126893 0.733259
vt 0.276353 0.733259
vt 0.126893 0.718900
vt 0.276353 0.718900
vt 0.409567 0.821190
vt 0.437849 0.821190
vt 0.437849 0.882747
vt 0.409567 0.882747
vt 0.444134 0.857697
vt 0.444134 0.821190
vt 0.462381 0.821190
vt 0.462381 0.857697
vt 0.495331 0.821190
vt 0.495331 0.857697
vt 0.469604 0.857697
vt 0.469604 0.821190
vn -0.873550 0.000000 0.486734
vn -0.873550 0.000000 0.486734
vn -0.873550 0.000000 0.486734
vn -0.873550 0.000000 0.486734
vn 0.000000 0.000000 1.000000
vn 0.000000 0.000000 1.000000
vn 0.000000 0.000000 1.000000
vn 0.000000 0.000000 1.000000
vn 0.000000 0.000000 1.000000
vn 0.000000 0.000000 1.000000
vn 0.000000 0.000000 1.000000
vn 0.000000 0.000000 1.000000
vn 0.873551 0.000000 0.486732
vn 0.873551 0.000000 0.486732
vn 0.873551 0.000000 0.486732
vn 0.873551 0.000000 0.486732
vn -0.729792 0.640006 0.240408
vn -0.729792 0.640006 0.240408
vn -0.753811 0.645542 0.122655
vn -0.750983 0.645317 0.139965
vn 0.000000 0.827656 0.561235
vn 0.000000 0.827656 0.561235
vn 0.000000 0.827656 0.561235
vn 0.000000 0.827656 0.561235
vn 0.000000 0.950196 0.311654
vn 0.000000 0.950196 0.311654
vn 0.000000 0.966168 0.257912
vn 0.000000 0.966168 0.257912
vn 0.000000 0.827656 0.561235
vn 0.000000 0.827656 0.561235
vn 0.000000 0.827656 0.561235
vn 0.000000 0.827656 0.561235
vn 0.000000 0.950196 0.311654
vn 0.000000 0.950196 0.311654
vn 0.000000 0.966168 0.257912
vn 0.000000 0.966168 0.257912
vn 0.000000 0.827656 0.561235
vn 0.000000 0.827656 0.561235
vn 0.000000 0.827656 0.561235
vn 0.000000 0.827656 0.561235
vn 0.729792 0.640005 0.240409
vn 0.729792 0.640005 0.240409
vn 0.750984 0.645316 0.139966
vn 0.753811 0.645542 0.122656
vn -0.982757 0.000000 0.184902
vn -1.000000 0.000000 0.000000
vn -1.000000 0.000000 0.000000
vn -0.982757 0.000000 0.184902
vn 0.000000 0.996523 0.083314
vn 0.000000 0.966168 0.257912
vn 0.000000 0.996523 0.083314
vn -0.775406 0.630907 0.026487
vn -0.776830 0.629324 0.022073
vn -0.770284 0.637419 -0.018979
vn -0.769440 0.638401 -0.020146
vn 0.000000 0.996523 0.083314
vn -0.022456 0.999036 -0.037719
vn -0.022462 0.998726 -0.045183
vn 0.000000 0.996523 0.083314
vn 0.000000 0.996523 0.083314
vn 0.022462 0.998726 -0.045183
vn 0.022456 0.999036 -0.037719
vn 0.000000 0.966168 0.257912
vn 0.000000 0.996523 0.083314
vn 1.000000 0.000000 0.000001
vn 0.982757 0.000000 0.184904
vn 0.982757 0.000000 0.184904
vn 1.000000 0.000000 0.000001
vn 0.776830 0.629324 0.022073
vn 0.775406 0.630907 0.026487
vn 0.769440 0.638401 -0.020146
vn 0.770284 0.637419 -0.018979
vn -1.000000 0.000000 0.000000
vn -1.000000 0.000000 0.000000
vn -1.000000 0.000000 0.000000
vn -1.000000 0.000000 0.000000
vn 0.000000 0.989408 -0.145158
vn 0.000000 0.998022 -0.062867
vn -0.060550 0.992532 -0.105899
vn -0.742207 0.668387 -0.048872
vn -0.746954 0.663366 -0.044784
vn -0.696996 0.711925 -0.085781
vn -0.696996 0.711925 -0.085781
vn -0.060813 0.993329 -0.097981
vn -0.093820 0.984957 -0.145110
vn -0.108764 0.978959 -0.172653
vn 0.000000 1.000000 0.000000
vn 0.000000 1.000000 0.000000
vn 0.000000 1.000000 0.000000
vn 0.000000 1.000000 0.000000
vn 0.060813 0.993329 -0.097981
vn 0.060550 0.992532 -0.105899
vn 0.108764 0.978959 -0.172653
vn 0.093820 0.984957 -0.145110
vn 0.000000 0.998022 -0.062867
vn 0.000000 0.989408 -0.145158
vn 1.000000 0.000000 0.000000
vn 1.000000 0.000000 0.000000
vn 1.000000 0.000000 0.000000
vn 1.000000 0.000000 0.000000
vn 0.746954 0.663366 -0.044784
vn 0.742207 0.668386 -0.048872
vn 0.696996 0.711925 -0.085781
vn 0.696996 0.711925 -0.085781
vn -0.783666 0.000000 -0.621182
vn -0.783666 0.000000 -0.621182
vn -0.783666 0.000000 -0.621182
vn -0.783666 0.000000 -0.621182
vn 0.000000 0.821537 -0.570155
vn 0.000000 0.821537 -0.570155
vn -0.073017 0.792807 -0.605083
vn -0.071832 0.793322 -0.604550
vn 0.000000 0.000000 -1.000000
vn 0.000000 0.000000 -1.000000
vn 0.000000 0.000000 -1.000000
vn 0.000000 0.000000 -1.000000
vn -0.060609 0.782926 -0.619156
vn -0.057788 0.782044 -0.620538
vn 0.057788 0.782044 -0.620538
vn 0.060609 0.782926 -0.619156
vn 0.000000 0.000000 -1.000000
vn 0.000000 0.000000 -1.000000
vn 0.000000 0.000000 -1.000000
vn 0.000000 0.000000 -1.000000
vn 0.071832 0.793322 -0.604550
vn 0.073017 0.792807 -0.605083
vn 0.000000 0.821537 -0.570155
vn 0.000000 0.821537 -0.570155
vn 0.783666 0.000000 -0.621182
vn 0.783666 0.000000 -0.621182
vn 0.783666 0.000000 -0.621182
vn 0.783666 0.000000 -0.621182
vn 0.000000 0.000000 1.000000
vn 0.000000 0.000000 1.000000
vn 0.000000 0.000000 1.000000
vn 0.000000 0.000000 1.000000
vn 0.000000 0.950196 0.311654
vn 0.000000 0.950196 0.311654
vn 0.000000 0.971379 -0.237534
vn 0.000000 0.971379 -0.237534
vn 0.000000 0.000000 -1.000000
vn 0.000000 0.000000 -1.000000
vn 0.000000 0.000000 -1.000000
vn 0.000000 0.000000 -1.000000
vn 0.000000 0.000000 -1.000000
vn 0.000000 0.000000 -1.000000
vn 0.000000 0.000000 -1.000000
vn 0.000000 0.000000 -1.000000
vn 1.000000 0.000000 0.000000
vn 1.000000 0.000000 0.000000
vn 0.938028 0.000000 0.346559
vn 0.938028 0.000000 0.346559
vn -1.000000 0.000000 0.000000
vn -1.000000 0.000000 0.000000
vn -0.938029 0.000000 0.346558
vn -0.938029 0.000000 0.346558
vn -0.700286 0.590833 0.400645
vn -0.700286 0.590833 0.400645
vn -0.700286 0.590833 0.400645
vn 0.700287 0.590832 0.400644
vn 0.700287 0.590832 0.400644
vn 0.700287 0.590832 0.400644
vn -0.583926 0.666929 -0.462856
vn -0.583926 0.666929 -0.462856
vn -0.583926 0.666929 -0.462856
vn 0.583926 0.666929 -0.462856
vn 0.583926 0.666929 -0.462856
vn 0.583926 0.666929 -0.462856
vn 0.000000 -1.000000 -0.000000
vn 0.000000 -1.000000 -0.000000
vn 0.000000 -1.000000 -0.000000
vn 0.000000 -1.000000 -0.000000
vn 0.000000 -1.000000 -0.000000
vn 0.000000 -1.000000 -0.000000
vn 0.000000 -1.000000 -0.000000
vn 0.000000 -1.000000 -0.000000
vn 0.000000 -1.000000 -0.000000
vn 0.000000 -1.000000 -0.000000
vn 0.000000 -1.000000 -0.000000
vn 0.000000 -1.000000 -0.000000
vn 0.000000 -1.000000 -0.000000
vn 0.000000 -1.000000 -0.000000
vn 0.000000 -1.000000 -0.000000
vn 0.000000 -1.000000 -0.000000
vn 0.000000 -1.000000 -0.000000
vn 0.000000 -1.000000 -0.000000
vn 0.000000 -1.000000 -0.000000
vn 0.000000 -1.000000 -0.000000
vn 0.000000 -1.000000 -0.000000
vn 0.000000 -1.000000 -0.000000
vn 0.000000 -1.000000 -0.000000
vn 0.000000 -1.000000 -0.000000
vn 0.000000 0.000000 -1.000000
vn 0.000000 0.000000 -1.000000
vn 0.000000 0.000000 -1.000000
vn 0.000000 0.000000 -1.000000
vn -0.000002 0.000000 -1.000000
vn -0.000002 0.000000 -1.000000
vn -0.000002 0.000000 -1.000000
vn -0.000002 0.000000 -1.000000
vn 0.000000 0.000000 -1.000000
vn 0.000000 0.000000 -1.000000
vn 0.000000 0.000000 -1.000000
vn 0.000000 0.000000 -1.000000
vn 0.000002 0.000000 -1.000000
vn 0.000002 0.000000 -1.000000
vn 0.000002 0.000000 -1.000000
vn 0.000002 0.000000 -1.000000
vn 0.000000 0.000000 0.000000
vn 0.000000 0.000000 0.000000
vn 0.000000 0.000000 0.000000
vn 0.000000 0.000000 0.000000
vn 0.000000 0.000000 0.000000
vn 0.000000 0.000000 0.000000
vn 0.000000 0.000000 0.000000
vn 0.000000 0.000000 0.000000
vn 0.000000 0.000000 0.000000
vn 0.000000 0.000000 0.000000
vn 0.000000 0.000000 0.000000
vn 0.000000 0.000000 0.000000
vn 0.000000 0.000000 0.000000
vn 0.000000 0.000000 0.000000
vn 0.000000 0.000000 0.000000
vn 0.000000 0.000000 0.000000
vn -1.000000 0.000000 0.000000
vn -1.000000 0.000000 0.000000
vn -1.000000 0.000000 0.000000
vn -1.000000 0.000000 0.000000
vn 0.000000 0.000000 1.000000
vn 0.000000 0.000000 1.000000
vn 0.000000 0.000000 1.000000
vn 0.000000 0.000000 1.000000
vn 1.000000 0.000000 0.000000
vn 1.000000 0.000000 0.000000
vn 1.000000 0.000000 0.000000
vn 1.000000 0.000000 0.000000
vn 0.000000 0.023209 -0.999731
vn 0.000000 0.023209 -0.999731
vn 0.000000 0.023209 -0.999731
vn 0.000000 0.023209 -0.999731
vn -0.867215 0.497934 0.000000
vn -0.867215 0.497934 0.000000
vn -0.867215 0.497934 0.000000
vn -0.867215 0.497934 0.000000
vn 0.000000 0.904577 0.426309
vn 0.000000 0.904577 0.426309
vn 0.000000 0.904577 0.426309
vn 0.000000 0.904577 0.426309
vn 0.867215 0.497934 0.000000
vn 0.867215 0.497934 0.000000
vn 0.867215 0.497934 0.000000
vn 0.867215 0.497934 0.000000
vn 0.000000 0.904577 -0.426309
vn 0.000000 0.904577 -0.426309
vn 0.000000 0.904577 -0.426309
vn 0.000000 0.904577 -0.426309
s off
usemtl initialShadingGroup
f 2/9/1 1/10/2 10/5/3 9/1/4
s 1
f 4/135/5 3/136/6 14/137/7 13/138/8
f 6/139/9 5/143/10 18/144/11 17/140/12
s off
f 8/32/13 7/28/14 22/24/15 21/27/16
s 3
f 9/1/17 11/2/18 24/3/19 23/4/20
s 4
f 11/61/21 10/67/22 13/68/23 12/62/24
s 5
f 12/62/25 15/69/26 29/63/27 28/59/28
s 4
f 15/69/29 14/75/30 17/83/31 16/76/32
s 5
f 16/76/33 19/84/34 33/77/35 32/70/36
s 4
f 19/84/37 18/91/38 21/97/39 20/92/40
s 7
f 20/23/41 22/24/42 38/25/43 37/26/44
s 8
f 23/4/45 26/7/46 81/13/47 82/8/48
s 5
f 25/57/49 24/58/50 28/59/28 27/60/51
s 3
f 26/7/52 25/6/53 40/11/54 39/12/55
s 5
f 27/60/51 30/64/56 45/72/57 44/65/58
f 30/64/56 29/63/27 32/70/36 31/71/59
f 31/71/59 34/78/60 49/87/61 48/79/62
f 34/78/60 33/77/35 37/85/63 36/86/64
s 9
f 35/30/65 38/25/66 83/29/67 84/33/68
s 7
f 36/31/69 35/30/70 54/34/71 53/35/72
s 8
f 39/12/73 42/15/74 77/19/75 78/16/76
s 5
f 41/73/77 40/66/78 44/65/58 43/74/79
s 3
f 42/15/80 41/14/81 56/17/82 55/18/83
s 5
f 43/74/79 46/80/84 60/88/85 59/81/86
s off
f 97/103/87 98/104/88 99/105/89 100/106/90
s 5
f 47/94/91 50/95/92 64/99/93 63/96/94
f 50/95/92 49/87/61 53/93/95 52/98/96
s 9
f 51/37/97 54/34/98 79/36/99 80/39/100
s 7
f 52/38/101 51/37/102 68/40/103 67/41/104
s off
f 55/18/105 57/20/106 70/22/107 69/21/108
s 11
f 57/89/109 56/82/110 59/81/111 58/90/112
s 12
f 58/147/113 61/148/114 72/149/115 71/150/116
s 11
f 61/148/117 60/152/118 63/157/119 62/158/120
s 13
f 62/158/121 65/163/122 74/164/123 73/160/124
s 11
f 65/101/125 64/99/126 67/100/127 66/102/128
s off
f 66/43/129 68/40/130 76/42/131 75/44/132
s 1
f 1/141/133 4/135/5 13/138/8 10/142/134
f 3/136/6 6/139/9 17/140/12 14/137/7
f 5/143/10 8/145/135 21/146/136 18/144/11
s 5
f 11/61/137 12/62/25 28/59/28 24/58/50
f 15/69/26 16/76/33 32/70/36 29/63/27
f 19/84/34 20/92/138 37/85/63 33/77/35
f 25/57/49 27/60/51 44/65/58 40/66/78
f 30/64/56 31/71/59 48/79/62 45/72/57
f 34/78/60 36/86/64 53/93/95 49/87/61
f 41/73/77 43/74/79 59/81/86 56/82/139
f 46/80/84 47/94/91 63/96/94 60/88/85
f 50/95/92 52/98/96 67/100/140 64/99/93
s 12
f 57/155/141 58/147/113 71/150/116 70/156/142
s off
f 90/167/143 89/168/144 91/169/145 92/170/146
s 13
f 65/163/122 66/165/147 75/166/148 74/164/123
s 9
f 80/39/100 76/42/149 68/40/150 51/37/97
f 84/33/68 79/36/99 54/34/98 35/30/65
f 7/28/151 83/29/67 38/25/66 22/24/152
s 8
f 69/21/153 77/19/75 42/15/74 55/18/154
f 78/16/76 81/13/47 26/7/46 39/12/73
f 82/8/48 2/9/155 9/1/156 23/4/45
s off
f 9/1/157 10/5/158 11/2/159
s 4
f 12/62/24 13/68/23 14/75/30 15/69/29
f 16/76/32 17/83/31 18/91/38 19/84/37
s off
f 20/23/160 21/27/161 22/24/162
s 3
f 23/4/20 24/3/19 25/6/53 26/7/52
s 5
f 27/60/51 28/59/28 29/63/27 30/64/56
f 31/71/59 32/70/36 33/77/35 34/78/60
s 7
f 35/30/70 36/31/69 37/26/44 38/25/43
s 3
f 39/12/55 40/11/54 41/14/81 42/15/80
s 5
f 43/74/79 44/65/58 45/72/57 46/80/84
f 47/94/91 48/79/62 49/87/61 50/95/92
s 7
f 51/37/102 52/38/101 53/35/72 54/34/71
s off
f 55/18/163 56/17/164 57/20/165
s 11
f 58/147/112 59/151/111 60/152/118 61/148/117
f 62/158/120 63/157/119 64/162/126 65/163/125
s off
f 66/43/166 67/41/167 68/40/168
f 82/111/169 81/112/170 78/113/171 77/114/172 69/115/173 70/116/174 71/117/175 72/118/176 73/119/177 74/120/178 75/121/179 76/122/180 80/123/181 79/124/182 84/125/183 83/126/184 7/127/185 8/128/186 5/129/187 6/130/188 3/131/189 4/132/190 1/133/191 2/134/192
f 61/148/193 62/158/194 85/159/195 86/153/196
f 62/158/197 73/160/198 87/161/199 85/159/200
f 73/160/201 72/149/202 88/154/203 87/161/204
f 72/149/205 61/148/206 86/153/207 88/154/208
f 86//209 85//210 89//211 90//212
f 85//213 87//214 91//215 89//216
f 87//217 88//218 92//219 91//220
f 88//221 86//222 90//223 92//224
f 46/45/225 45/46/226 94/47/227 93/48/228
f 45/171/229 48/172/230 95/173/231 94/174/232
f 48/51/233 47/52/234 96/53/235 95/54/236
f 47/175/237 46/176/238 93/177/239 96/178/240
f 93/48/241 94/47/242 98/49/243 97/50/244
f 94/107/245 95/108/246 99/105/247 98/104/248
f 95/54/249 96/53/250 100/55/251 99/56/252
f 96/109/253 93/110/254 97/103/255 100/106/256
