# This file uses centimeters as units for non-parametric coordinates.

mtllib Rock01Mesh.mtl
v -0.702831 -0.030690 0.570288
v 0.000000 -0.030690 0.570288
v 0.570288 -0.030690 0.570288
v -0.669938 0.469310 0.597443
v 0.000000 0.469310 0.597443
v 0.537395 0.469310 0.597443
v -0.438036 0.751881 0.464604
v 0.000000 0.865667 0.464604
v 0.438036 0.771610 0.420295
v -0.438036 0.855524 0.000000
v 0.000000 0.969310 0.000000
v 0.438036 0.875253 0.000000
v -0.438036 0.728773 -0.500000
v 0.000000 0.842559 -0.500000
v 0.438036 0.748502 -0.455691
v -0.669938 0.469310 -0.597443
v 0.000000 0.469310 -0.659741
v 0.651574 0.469310 -0.597443
v -0.702831 -0.030690 -0.570288
v 0.114178 -0.030690 -0.632586
v 0.684466 -0.030690 -0.570288
v -0.702831 -0.030690 -0.000000
v 0.000000 -0.030690 0.000000
v 0.684466 -0.030690 0.000000
v 0.651574 0.469310 0.000000
v -0.669938 0.469310 0.000000
vt 0.375000 0.000000
vt 0.500000 0.000000
vt 0.625000 0.000000
vt 0.375000 0.125000
vt 0.500000 0.125000
vt 0.625000 0.125000
vt 0.375000 0.250000
vt 0.500000 0.250000
vt 0.625000 0.250000
vt 0.375000 0.375000
vt 0.500000 0.375000
vt 0.625000 0.375000
vt 0.375000 0.500000
vt 0.500000 0.500000
vt 0.625000 0.500000
vt 0.375000 0.625000
vt 0.500000 0.625000
vt 0.625000 0.625000
vt 0.375000 0.750000
vt 0.500000 0.750000
vt 0.625000 0.750000
vt 0.375000 0.875000
vt 0.500000 0.875000
vt 0.625000 0.875000
vt 0.375000 1.000000
vt 0.500000 1.000000
vt 0.625000 1.000000
vt 0.875000 0.000000
vt 0.750000 0.000000
vt 0.875000 0.125000
vt 0.750000 0.125000
vt 0.875000 0.250000
vt 0.750000 0.250000
vt 0.125000 0.000000
vt 0.250000 0.000000
vt 0.125000 0.125000
vt 0.250000 0.125000
vt 0.125000 0.250000
vt 0.250000 0.250000
vn 0.000000 -0.054231 0.998528
vn 0.000000 -0.054231 0.998528
vn 0.007650 0.119396 0.992817
vn -0.009626 0.052046 0.998598
vn 0.000000 -0.054231 0.998528
vn 0.028816 0.110602 0.993447
vn 0.021237 0.395466 0.918235
vn -0.038567 0.375537 0.926004
vn 0.081094 0.413840 0.906730
vn -0.245757 0.946077 0.211050
vn -0.029885 0.974472 0.222512
vn -0.021131 0.999489 -0.023989
vn -0.251350 0.967607 -0.023678
vn 0.215422 0.950783 0.222720
vn 0.221659 0.974806 -0.024925
vn -0.028551 0.967652 -0.250669
vn -0.244178 0.939997 -0.238291
vn 0.215341 0.943897 -0.250374
vn -0.092651 0.403896 -0.910101
vn 0.022475 0.430754 -0.902189
vn -0.001689 0.119688 -0.992810
vn -0.087010 0.040157 -0.995398
vn 0.125342 0.449682 -0.884350
vn 0.111013 0.101717 -0.988600
vn 0.013251 -0.049662 -0.998678
vn -0.083346 -0.060796 -0.994664
vn 0.101368 -0.039081 -0.994081
vn 0.000000 -1.000000 -0.000000
vn 0.000000 -1.000000 -0.000000
vn 0.000000 -1.000000 -0.000000
vn 0.000000 -1.000000 -0.000000
vn 0.000000 -1.000000 -0.000000
vn 0.000000 -1.000000 -0.000000
vn 0.000000 -1.000000 0.000000
vn 0.000000 -1.000000 0.000000
vn 0.000000 -1.000000 0.000000
vn 0.993333 0.062720 0.096726
vn 0.997843 0.065644 0.000000
vn 0.969956 0.242103 -0.023920
vn 0.968125 0.239342 0.073819
vn 0.979686 0.059246 0.191583
vn 0.966321 0.185205 0.178668
vn 0.840788 0.537485 -0.064690
vn 0.871884 0.488259 0.037690
vn 0.891413 0.429782 0.143774
vn -0.997843 0.065643 0.000000
vn -0.997843 0.065643 -0.000000
vn -0.955192 0.295974 -0.002746
vn -0.959931 0.278895 -0.027382
vn -0.997843 0.065643 -0.000000
vn -0.964223 0.264210 0.021603
vn -0.811895 0.583776 -0.005691
vn -0.805409 0.588806 -0.068005
vn -0.815163 0.576493 0.056259
s 1
usemtl initialShadingGroup
f 1/1/1 2/2/2 5/5/3 4/4/4
f 2/2/2 3/3/5 6/6/6 5/5/3
f 4/4/4 5/5/3 8/8/7 7/7/8
f 5/5/3 6/6/6 9/9/9 8/8/7
s 2
f 7/7/10 8/8/11 11/11/12 10/10/13
f 8/8/11 9/9/14 12/12/15 11/11/12
f 10/10/13 11/11/12 14/14/16 13/13/17
f 11/11/12 12/12/15 15/15/18 14/14/16
s 3
f 13/13/19 14/14/20 17/17/21 16/16/22
f 14/14/20 15/15/23 18/18/24 17/17/21
f 16/16/22 17/17/21 20/20/25 19/19/26
f 17/17/21 18/18/24 21/21/27 20/20/25
s 4
f 19/19/28 20/20/29 23/23/30 22/22/31
f 20/20/29 21/21/32 24/24/33 23/23/30
f 22/22/31 23/23/30 2/26/34 1/25/35
f 23/23/30 24/24/33 3/27/36 2/26/34
s 5
f 24/29/37 21/28/38 18/30/39 25/31/40
f 3/3/41 24/29/37 25/31/40 6/6/42
f 25/31/40 18/30/39 15/32/43 12/33/44
f 6/6/42 25/31/40 12/33/44 9/9/45
s 6
f 19/34/46 22/35/47 26/37/48 16/36/49
f 22/35/47 1/1/50 4/4/51 26/37/48
f 16/36/49 26/37/48 10/39/52 13/38/53
f 26/37/48 4/4/51 7/7/54 10/39/52
