# This file uses centimeters as units for non-parametric coordinates.

mtllib StickyNoteMesh.mtl
v -0.023718 -0.078552 0.080678
v -0.010450 -0.081462 0.080678
v -0.016803 -0.047030 0.080678
v -0.003535 -0.049941 0.080678
v -0.011823 -0.015381 0.080678
v 0.001575 -0.017617 0.080678
v -0.009237 0.016567 0.080678
v 0.004282 0.015245 0.080678
v -0.006792 0.048407 0.080678
v 0.006792 0.048407 0.080678
v -0.006792 0.080678 0.080678
v 0.006792 0.080678 0.080678
v -0.006792 0.080678 -0.080678
v 0.006792 0.080678 -0.080678
v -0.006792 0.048407 -0.080678
v 0.006792 0.048407 -0.080678
v -0.009237 0.016567 -0.080678
v 0.004282 0.015245 -0.080678
v -0.011823 -0.015381 -0.080678
v 0.001575 -0.017617 -0.080678
v -0.016803 -0.047030 -0.080678
v -0.003535 -0.049941 -0.080678
v -0.023718 -0.078552 -0.080678
v -0.010450 -0.081462 -0.080678
vt 0.375000 0.000000
vt 0.625000 0.000000
vt 0.375000 0.050000
vt 0.625000 0.050000
vt 0.375000 0.100000
vt 0.625000 0.100000
vt 0.375000 0.150000
vt 0.625000 0.150000
vt 0.375000 0.200000
vt 0.625000 0.200000
vt 0.375000 0.250000
vt 0.625000 0.250000
vt 0.375000 0.500000
vt 0.625000 0.500000
vt 0.375000 0.550000
vt 0.625000 0.550000
vt 0.375000 0.600000
vt 0.625000 0.600000
vt 0.375000 0.650000
vt 0.625000 0.650000
vt 0.375000 0.700000
vt 0.625000 0.700000
vt 0.375000 0.750000
vt 0.625000 0.750000
vt 0.375000 1.000000
vt 0.625000 1.000000
vt 0.875000 0.000000
vt 0.875000 0.050000
vt 0.875000 0.100000
vt 0.875000 0.150000
vt 0.875000 0.200000
vt 0.875000 0.250000
vt 0.125000 0.000000
vt 0.125000 0.050000
vt 0.125000 0.100000
vt 0.125000 0.150000
vt 0.125000 0.200000
vt 0.125000 0.250000
vn 0.000000 0.000000 1.000000
vn 0.000000 0.000000 1.000000
vn 0.000000 0.000000 1.000000
vn 0.000000 0.000000 1.000000
vn 0.000000 0.000000 1.000000
vn 0.000000 0.000000 1.000000
vn 0.000000 0.000000 1.000000
vn 0.000000 0.000000 1.000000
vn 0.000000 0.000000 1.000000
vn 0.000000 0.000000 1.000000
vn 0.000000 0.000000 1.000000
vn 0.000000 0.000000 1.000000
vn 0.000000 1.000000 0.000000
vn 0.000000 1.000000 0.000000
vn 0.000000 1.000000 0.000000
vn 0.000000 1.000000 0.000000
vn 0.000000 0.000000 -1.000000
vn 0.000000 0.000000 -1.000000
vn 0.000000 0.000000 -1.000000
vn 0.000000 0.000000 -1.000000
vn 0.000000 0.000000 -1.000000
vn 0.000000 0.000000 -1.000000
vn -0.000000 0.000000 -1.000000
vn -0.000000 0.000000 -1.000000
vn -0.000000 0.000000 -1.000000
vn -0.000000 0.000000 -1.000000
vn 0.000000 0.000000 -1.000000
vn 0.000000 0.000000 -1.000000
vn -0.214283 -0.976772 0.000000
vn -0.214283 -0.976772 0.000000
vn -0.214283 -0.976772 0.000000
vn -0.214283 -0.976772 0.000000
vn 0.976772 -0.214283 -0.000000
vn 0.976772 -0.214283 -0.000000
vn 0.982721 -0.185094 -0.000000
vn 0.982721 -0.185094 -0.000000
vn 0.992887 -0.119063 -0.000000
vn 0.992887 -0.119063 -0.000000
vn 0.996893 -0.078771 0.000000
vn 0.996893 -0.078771 0.000000
vn 0.999265 -0.038334 0.000000
vn 0.999265 -0.038334 0.000000
vn 1.000000 0.000000 0.000000
vn 1.000000 0.000000 0.000000
vn -0.976772 0.214283 0.000000
vn -0.976772 0.214283 0.000000
vn -0.982730 0.185047 -0.000000
vn -0.982730 0.185047 -0.000000
vn -0.992998 0.118131 -0.000000
vn -0.992998 0.118131 -0.000000
vn -0.996903 0.078638 -0.000000
vn -0.996903 0.078638 -0.000000
vn -0.999273 0.038121 -0.000000
vn -0.999273 0.038121 -0.000000
vn -1.000000 0.000000 0.000000
vn -1.000000 0.000000 0.000000
s 1
usemtl initialShadingGroup
f 1/1/1 2/2/2 4/4/3 3/3/4
f 3/3/4 4/4/3 6/6/5 5/5/6
f 5/5/6 6/6/5 8/8/7 7/7/8
f 7/7/8 8/8/7 10/10/9 9/9/10
f 9/9/10 10/10/9 12/12/11 11/11/12
s off
f 11/11/13 12/12/14 14/14/15 13/13/16
s 2
f 13/13/17 14/14/18 16/16/19 15/15/20
f 15/15/20 16/16/19 18/18/21 17/17/22
f 17/17/22 18/18/21 20/20/23 19/19/24
f 19/19/24 20/20/23 22/22/25 21/21/26
f 21/21/26 22/22/25 24/24/27 23/23/28
s off
f 23/23/29 24/24/30 2/26/31 1/25/32
s 3
f 2/2/33 24/27/34 22/28/35 4/4/36
f 4/4/36 22/28/35 20/29/37 6/6/38
f 6/6/38 20/29/37 18/30/39 8/8/40
f 8/8/40 18/30/39 16/31/41 10/10/42
f 10/10/42 16/31/41 14/32/43 12/12/44
s 4
f 23/33/45 1/1/46 3/3/47 21/34/48
f 21/34/48 3/3/47 5/5/49 19/35/50
f 19/35/50 5/5/49 7/7/51 17/36/52
f 17/36/52 7/7/51 9/9/53 15/37/54
f 15/37/54 9/9/53 11/11/55 13/38/56
