# This file uses centimeters as units for non-parametric coordinates.

mtllib Tree2Mesh.mtl
v 0.707107 1.297849 -0.707107
v 0.000000 1.297849 -1.000000
v -0.707107 1.297849 -0.707107
v -1.000000 1.297849 0.000000
v -0.707107 1.297849 0.707107
v 0.000000 1.297849 1.000000
v 0.707107 1.297849 0.707107
v 1.000000 1.297849 0.000000
v 0.309192 2.297849 -0.309192
v 0.000000 2.297849 -0.437264
v -0.309192 2.297849 -0.309192
v -0.437264 2.297849 0.000000
v -0.309192 2.297849 0.309192
v 0.000000 2.297849 0.437264
v 0.309192 2.297849 0.309192
v 0.437264 2.297849 0.000000
v 0.000000 3.297849 0.000000
v 1.060464 -0.057277 -1.060464
v 0.000000 -0.057277 -1.499722
v -1.060464 -0.057277 -1.060464
v -1.499722 -0.057277 0.000000
v -1.060464 -0.057277 1.060464
v 0.000000 -0.057277 1.499722
v 1.060464 -0.057277 1.060464
v 1.499722 -0.057277 0.000000
v 0.463703 1.186874 -0.463703
v 0.000000 1.186874 -0.655775
v -0.463703 1.186874 -0.463703
v -0.655775 1.186874 0.000000
v -0.463703 1.186874 0.463703
v 0.000000 1.186874 0.655775
v 0.463703 1.186874 0.463703
v 0.655775 1.186874 0.000000
v 0.000000 2.431026 0.000000
vt 0.781087 0.313681
vt 0.888102 0.313681
vt 0.888102 0.465023
vt 0.841308 0.465023
vt 0.995117 0.313681
vt 0.934896 0.465023
vt 0.888102 0.616365
vt 0.776236 0.687426
vt 0.883251 0.687426
vt 0.883251 0.838769
vt 0.836457 0.838769
vt 0.990266 0.687426
vt 0.930045 0.838769
vt 0.883251 0.990111
vt 0.607967 0.473635
vt 0.705347 0.433299
vt 0.802727 0.473635
vt 0.843063 0.571015
vt 0.802727 0.668395
vt 0.705347 0.708731
vt 0.607967 0.668395
vt 0.567631 0.571015
vt 0.412964 0.754274
vt 0.305949 0.754274
vt 0.305949 0.602931
vt 0.352743 0.602931
vt 0.198934 0.754274
vt 0.259155 0.602931
vt 0.305949 0.451589
vt 0.674359 0.005002
vt 0.781374 0.005002
vt 0.781374 0.156345
vt 0.734580 0.156345
vt 0.888389 0.005002
vt 0.828168 0.156345
vt 0.781374 0.307687
vt 0.812921 0.427245
vt 0.663594 0.427245
vt 0.663594 0.216064
vt 0.728890 0.216064
vt 0.514267 0.427245
vt 0.598299 0.216064
vt 0.310513 0.433309
vt 0.459841 0.433309
vt 0.459841 0.644490
vt 0.394545 0.644490
vt 0.609168 0.433309
vt 0.525136 0.644490
vt 0.004883 0.424126
vt 0.154210 0.424126
vt 0.154210 0.635307
vt 0.088915 0.635307
vt 0.303538 0.424126
vt 0.219506 0.635307
vt 0.349323 0.005002
vt 0.498651 0.005002
vt 0.498651 0.216183
vt 0.433355 0.216183
vt 0.647978 0.005002
vt 0.563946 0.216183
vt 0.357462 0.065489
vt 0.417955 0.211532
vt 0.357462 0.357575
vt 0.211419 0.418068
vt 0.065376 0.357575
vt 0.004883 0.211532
vt 0.065376 0.065489
vt 0.211419 0.004996
vt 0.663594 0.004883
vt 0.459841 0.855670
vt 0.154210 0.846487
vt 0.498651 0.427364
vn 0.616235 0.490417 -0.616235
vn 0.000000 0.490418 -0.871488
vn 0.000000 0.473816 -0.880624
vn 0.622695 0.473816 -0.622695
vn -0.616235 0.490417 -0.616235
vn -0.622695 0.473816 -0.622695
vn -0.871488 0.490417 0.000000
vn -0.880624 0.473816 0.000000
vn -0.616235 0.490418 0.616235
vn -0.622695 0.473816 0.622695
vn 0.000000 0.490418 0.871488
vn -0.000000 0.473816 0.880624
vn 0.616235 0.490418 0.616235
vn 0.622695 0.473816 0.622695
vn 0.871488 0.490418 -0.000000
vn 0.880624 0.473816 -0.000000
vn 0.000000 -1.000000 -0.000000
vn 0.000000 -1.000000 -0.000000
vn 0.000000 -1.000000 -0.000000
vn 0.000000 -1.000000 -0.000000
vn 0.000000 -1.000000 -0.000000
vn 0.000000 -1.000000 -0.000000
vn 0.000000 -1.000000 -0.000000
vn 0.000000 -1.000000 -0.000000
vn 0.354824 0.374569 -0.856620
vn -0.354824 0.374569 -0.856620
vn -0.856620 0.374569 -0.354824
vn -0.856620 0.374569 0.354823
vn -0.354824 0.374569 0.856620
vn 0.354824 0.374569 0.856620
vn 0.856620 0.374569 0.354824
vn 0.856620 0.374569 -0.354824
vn 0.585179 0.561366 -0.585179
vn 0.000000 0.561366 -0.827568
vn 0.000000 0.544617 -0.838685
vn 0.593040 0.544617 -0.593040
vn -0.585179 0.561366 -0.585179
vn -0.593040 0.544617 -0.593040
vn -0.827568 0.561366 0.000000
vn -0.838685 0.544617 -0.000000
vn -0.585179 0.561366 0.585179
vn -0.593040 0.544617 0.593040
vn -0.000000 0.561366 0.827568
vn -0.000000 0.544617 0.838685
vn 0.585179 0.561366 0.585179
vn 0.593040 0.544617 0.593040
vn 0.827568 0.561366 -0.000000
vn 0.838685 0.544617 -0.000000
vn 0.000000 -1.000000 0.000000
vn 0.000000 -1.000000 0.000000
vn 0.000000 -1.000000 0.000000
vn 0.000000 -1.000000 0.000000
vn 0.000000 -1.000000 0.000000
vn 0.000000 -1.000000 0.000000
vn 0.000000 -1.000000 0.000000
vn 0.000000 -1.000000 0.000000
vn 0.344058 0.437813 -0.830629
vn -0.344058 0.437813 -0.830629
vn -0.830629 0.437813 -0.344058
vn -0.830629 0.437813 0.344058
vn -0.344058 0.437813 0.830629
vn 0.344058 0.437813 0.830629
vn 0.830629 0.437813 0.344058
vn 0.830629 0.437813 -0.344058
s 1
usemtl initialShadingGroup
f 1/23/1 2/24/2 10/25/3 9/26/4
f 2/24/2 3/27/5 11/28/6 10/25/3
f 3/1/5 4/2/7 12/3/8 11/4/6
f 4/2/7 5/5/9 13/6/10 12/3/8
f 5/30/9 6/31/11 14/32/12 13/33/10
f 6/31/11 7/34/13 15/35/14 14/32/12
f 7/8/13 8/9/15 16/10/16 15/11/14
f 8/9/15 1/12/1 9/13/4 16/10/16
s off
f 1/15/17 8/16/18 7/17/19 6/18/20 5/19/21 4/20/22 3/21/23 2/22/24
s 1
f 9/26/4 10/25/3 17/29/25
f 10/25/3 11/28/6 17/29/26
f 11/4/6 12/3/8 17/7/27
f 12/3/8 13/6/10 17/7/28
f 13/33/10 14/32/12 17/36/29
f 14/32/12 15/35/14 17/36/30
f 15/11/14 16/10/16 17/14/31
f 16/10/16 9/13/4 17/14/32
s 2
f 18/37/33 19/38/34 27/39/35 26/40/36
f 19/38/34 20/41/37 28/42/38 27/39/35
f 20/43/37 21/44/39 29/45/40 28/46/38
f 21/44/39 22/47/41 30/48/42 29/45/40
f 22/49/41 23/50/43 31/51/44 30/52/42
f 23/50/43 24/53/45 32/54/46 31/51/44
f 24/55/45 25/56/47 33/57/48 32/58/46
f 25/56/47 18/59/33 26/60/36 33/57/48
s off
f 18/61/49 25/62/50 24/63/51 23/64/52 22/65/53 21/66/54 20/67/55 19/68/56
s 2
f 26/40/36 27/39/35 34/69/57
f 27/39/35 28/42/38 34/69/58
f 28/46/38 29/45/40 34/70/59
f 29/45/40 30/48/42 34/70/60
f 30/52/42 31/51/44 34/71/61
f 31/51/44 32/54/46 34/71/62
f 32/58/46 33/57/48 34/72/63
f 33/57/48 26/60/36 34/72/64
